<svg width="131" height="39" viewBox="0 0 131 39" fill="none" xmlns="http://www.w3.org/2000/svg">
<path d="M129.291 17.0827C129.443 16.692 129.595 16.3664 129.769 16.0191C129.834 15.8672 130.073 15.8021 130.225 15.8455C130.29 15.8889 130.268 15.954 130.268 16.0191V17.9944C130.268 18.1246 130.225 18.1463 130.116 18.1463C129.986 18.1463 129.964 18.1029 129.964 17.9944V16.5835C129.964 16.5184 129.986 16.4316 129.921 16.3447C129.769 16.7137 129.574 17.0176 129.465 17.3649C129.443 17.4518 129.422 17.5169 129.313 17.5169C129.205 17.5386 129.161 17.4952 129.118 17.3866C128.987 17.1044 128.879 16.8223 128.749 16.5618C128.727 16.4967 128.727 16.4316 128.64 16.4099C128.597 16.4967 128.618 16.5835 128.618 16.6703V17.9727C128.618 18.1029 128.575 18.168 128.445 18.168C128.293 18.168 128.293 18.1029 128.293 17.9727V16.0626C128.293 15.9757 128.249 15.8238 128.401 15.8238C128.532 15.8238 128.705 15.737 128.792 15.954C128.944 16.2796 129.096 16.6269 129.248 16.9525C129.248 16.9959 129.27 17.0393 129.291 17.0827Z" fill="white"/>
<path d="M126.925 17.1693C126.925 16.9088 126.904 16.6483 126.925 16.4096C126.947 16.1925 126.86 16.1274 126.665 16.1491C126.556 16.1708 126.448 16.1491 126.339 16.1491C126.209 16.1708 126.166 16.1274 126.166 15.9972C126.166 15.8452 126.231 15.8452 126.361 15.8452H127.859C127.989 15.8452 128.032 15.8886 128.032 15.9972C128.032 16.1274 127.967 16.1491 127.859 16.1491C127.728 16.1491 127.598 16.1708 127.468 16.1491C127.294 16.1274 127.251 16.1925 127.251 16.3662C127.273 16.9088 127.251 17.4298 127.251 17.9507C127.251 18.0809 127.251 18.1678 127.077 18.1678C126.904 18.1678 126.925 18.0592 126.925 17.9507V17.1693Z" fill="white"/>
<path d="M95.6902 22.3138C96.0375 22.0099 96.3631 21.7278 96.7321 21.489C97.774 20.8378 98.9027 20.6424 100.118 20.751C100.683 20.8161 101.225 20.9246 101.746 21.1634C102.484 21.489 103.049 22.0316 103.504 22.7045C103.57 22.8131 103.613 22.8348 103.7 22.7045C104.481 21.5541 105.588 20.9246 106.934 20.751C108.28 20.5773 109.539 20.8595 110.581 21.7929C111.102 22.2704 111.405 22.8782 111.514 23.5728C111.601 24.0286 111.623 24.5061 111.644 24.962C111.644 27.3279 111.644 29.7156 111.666 32.0816C111.666 32.2986 111.601 32.3421 111.405 32.3421C110.147 32.3203 108.909 32.3203 107.65 32.3421C107.455 32.3421 107.412 32.2986 107.412 32.1033C107.433 30.2366 107.433 28.3698 107.412 26.5031C107.412 26.0473 107.39 25.6132 107.281 25.179C106.912 23.6379 105.176 23.6379 104.416 24.3542C103.939 24.81 103.787 25.3744 103.7 25.9822C103.656 26.5031 103.656 27.0458 103.656 27.5667V32.1467C103.656 32.2986 103.635 32.3638 103.439 32.3638C102.159 32.342 100.9 32.342 99.6191 32.3638C99.4454 32.3638 99.402 32.3203 99.402 32.1467V26.4814C99.402 26.0907 99.3803 25.7 99.3152 25.331C99.1632 24.6147 98.7508 24.1805 98.0562 24.0069C97.2314 23.7898 96.4282 24.1154 95.9941 24.7883C95.7337 25.2007 95.6685 25.6566 95.6685 26.1124C95.6468 28.1094 95.6468 30.1063 95.6468 32.1033C95.6468 32.3203 95.6034 32.3638 95.3864 32.3638C94.1274 32.342 92.8902 32.342 91.6312 32.3638C91.4576 32.3638 91.4141 32.3203 91.4141 32.1467V21.12C91.4141 20.9463 91.4576 20.9029 91.6312 20.9029C92.8902 20.9246 94.1491 20.9246 95.4298 20.9029C95.6034 20.9029 95.6468 20.9463 95.6468 21.12C95.6685 21.5107 95.6902 21.8797 95.6902 22.3138Z" fill="white"/>
<path d="M80.9952 29.1729C81.1471 29.1729 81.2991 29.1946 81.451 29.1729C82.9922 28.9776 84.034 27.393 83.5782 25.8953C83.0356 24.1588 80.9735 23.5293 79.5409 24.441C78.499 25.1139 78.2168 26.069 78.3687 27.0457C78.5641 28.2613 79.6928 29.2598 80.9952 29.1729ZM83.5348 31.1699C83.2743 31.4304 83.0139 31.6691 82.7317 31.8645C82.0805 32.342 81.3642 32.5808 80.5828 32.6676C79.3672 32.8196 78.2168 32.6242 77.1315 32.0164C75.4167 31.0831 74.3314 29.6939 74.0275 27.7403C73.7671 26.1558 73.9624 24.6147 74.8741 23.2255C75.8725 21.7494 77.24 20.8595 79.0199 20.599C80.3223 20.4037 81.5378 20.6207 82.6883 21.2936C82.9922 21.489 83.2526 21.7277 83.5348 21.9665C83.5999 21.8797 83.5782 21.8146 83.5782 21.7277V14.0872C83.5782 13.8701 83.6216 13.805 83.8387 13.8267C85.0976 13.8484 86.3566 13.8484 87.6373 13.8267C87.7892 13.8267 87.8543 13.8701 87.8543 14.0438V32.125C87.8543 32.2769 87.8109 32.342 87.6373 32.3203C86.3566 32.3203 85.0759 32.3203 83.7953 32.3203C83.6216 32.3203 83.5782 32.2769 83.5782 32.1033C83.5348 31.7994 83.5348 31.4955 83.5348 31.1699Z" fill="white"/>
<path d="M22.9096 23.9634C22.6925 23.9634 22.4972 23.9851 22.2801 24.0068C20.739 24.3107 19.5669 26.0906 20.3917 27.762C20.9778 28.8907 22.1499 29.4551 23.474 29.2163C24.9717 28.9341 25.9268 27.4798 25.6012 26.0038C25.3841 24.9619 24.2771 23.8983 22.9096 23.9634ZM22.8011 20.4904C24.3205 20.4904 25.5795 20.7075 26.7516 21.3153C28.3578 22.1835 29.5083 23.4642 29.9207 25.3092C30.5502 28.0876 29.2044 30.7791 26.5996 32.0164C25.6663 32.4505 24.7112 32.6676 23.691 32.7327C22.6057 32.7978 21.5421 32.7544 20.5002 32.4722C18.5901 31.9513 17.1141 30.866 16.2892 29.0427C15.3776 27.0023 15.6163 24.5061 17.3094 22.7045C18.373 21.5757 19.6537 20.9463 21.1731 20.6641C21.7592 20.5339 22.3887 20.4687 22.8011 20.4904Z" fill="white"/>
<path d="M62.6969 22.3138C63.0225 21.9448 63.3264 21.641 63.6954 21.3805C64.3032 20.9464 64.9978 20.751 65.7358 20.6642C66.6909 20.5556 67.6025 20.6208 68.4925 20.9681C69.8382 21.5107 70.6414 22.4875 70.9018 23.9201C70.967 24.3108 70.9887 24.7015 70.9887 25.0922V32.0816C70.9887 32.277 70.9453 32.3204 70.7499 32.3204C69.4909 32.2987 68.232 32.2987 66.973 32.3204C66.756 32.3204 66.7343 32.2553 66.7343 32.0599C66.756 30.1498 66.756 28.2179 66.7343 26.3078C66.7343 25.9171 66.6909 25.5046 66.604 25.1139C66.4738 24.441 66.0397 24.0286 65.3885 23.8767C64.5202 23.6813 63.7605 23.8767 63.1528 24.5496C62.8489 24.8752 62.762 25.2876 62.7186 25.7C62.6535 26.1992 62.6969 26.6768 62.6969 27.176V32.0816C62.6969 32.2553 62.6535 32.2987 62.4799 32.2987C61.1992 32.277 59.9402 32.277 58.6596 32.2987C58.4859 32.2987 58.4425 32.2553 58.4425 32.0816V21.12C58.4425 20.9247 58.4859 20.8812 58.6813 20.8812C59.9402 20.9029 61.1992 20.9029 62.4799 20.8812C62.6535 20.8812 62.7186 20.9247 62.6969 21.0983C62.6969 21.5107 62.6969 21.8797 62.6969 22.3138Z" fill="white"/>
<path d="M55.751 24.8533C55.751 26.0472 55.7727 27.2627 55.7293 28.4566C55.6859 29.9977 54.9913 31.1915 53.6238 31.9512C52.7989 32.4071 51.8873 32.6241 50.9539 32.7544C50.2159 32.8412 49.4996 32.8629 48.7616 32.8195C47.4158 32.7761 46.1135 32.5373 44.963 31.7993C43.856 31.1047 43.2265 30.1062 43.0963 28.8039C43.0529 28.4783 43.0529 28.1744 43.0529 27.8705V21.1416C43.0529 20.9462 43.0963 20.9028 43.2917 20.9028C44.5506 20.9245 45.8096 20.9245 47.0902 20.9028C47.2856 20.9028 47.329 20.9462 47.329 21.1416C47.3073 23.2471 47.329 25.3526 47.3073 27.4581C47.3073 27.8054 47.3507 28.131 47.4809 28.4566C47.7197 29.0209 48.1755 29.3248 48.7616 29.4333C49.2825 29.5419 49.8035 29.5419 50.3027 29.3682C50.9973 29.1295 51.3663 28.6085 51.4532 27.8922C51.4966 27.5666 51.4966 27.2627 51.4966 26.9371V21.1416C51.4966 20.9462 51.54 20.9028 51.7136 20.9028C52.9726 20.9245 54.2315 20.9245 55.5122 20.9028C55.6859 20.9028 55.7293 20.9462 55.7293 21.1199C55.751 22.3571 55.751 23.6161 55.751 24.8533Z" fill="white"/>
<path d="M120.826 25.0924H123.018C123.105 25.0924 123.214 25.1141 123.17 24.9622C123.018 24.3761 122.758 23.8769 122.259 23.5296C121.759 23.1606 121.195 23.1172 120.609 23.1389C119.524 23.1823 118.72 23.8769 118.482 24.9188C118.438 25.0707 118.503 25.0924 118.634 25.0924C119.35 25.0924 120.088 25.0924 120.826 25.0924ZM122.758 27.3716H118.59C118.351 27.3716 118.33 27.3933 118.351 27.632C118.395 27.8708 118.395 28.1096 118.46 28.3266C118.655 29.0429 119.089 29.5422 119.806 29.7592C120.435 29.9546 121.065 29.998 121.694 29.8027C122.15 29.6507 122.519 29.3902 122.801 28.9995C122.866 28.891 122.975 28.8259 123.105 28.8259C124.321 28.8476 125.536 28.8476 126.752 28.8259C126.947 28.8259 126.969 28.891 126.904 29.0646C126.252 30.9531 124.907 32.0384 122.997 32.5159C122.367 32.6679 121.759 32.733 121.108 32.733C120.001 32.7547 118.916 32.6679 117.896 32.2554C115.855 31.474 114.575 30.0414 114.184 27.8925C113.88 26.2428 114.119 24.68 115.009 23.2257C115.703 22.1187 116.68 21.359 117.917 20.9683C119.589 20.4256 121.303 20.3822 122.975 20.8597C125.059 21.4458 126.318 22.9001 126.882 24.9622C127.099 25.7002 127.121 26.4382 127.099 27.1979C127.099 27.3499 126.99 27.3499 126.882 27.3499C125.536 27.3716 124.147 27.3716 122.758 27.3716Z" fill="white"/>
<path d="M33.5239 28.283V24.4627C33.5239 24.2891 33.4805 24.224 33.3068 24.2457C32.9378 24.2674 32.5688 24.2457 32.1781 24.2674C32.0479 24.2674 32.0262 24.224 32.0262 24.0937V21.0766C32.0262 20.9463 32.0696 20.9029 32.1998 20.9029C32.5688 20.9246 32.9378 20.8812 33.3068 20.9246C33.5022 20.9463 33.5456 20.8595 33.5456 20.6859C33.5239 20.1866 33.5239 19.6657 33.5456 19.1664C33.589 18.1245 33.7627 17.1044 34.3487 16.2144C35.1301 15.0206 36.2372 14.2826 37.6481 13.957C38.6248 13.7399 39.5799 13.7833 40.5133 14.1523C40.6869 14.2174 40.752 14.3043 40.752 14.4996C40.7303 15.4981 40.752 16.4966 40.752 17.4951C40.752 17.7772 40.752 17.799 40.4916 17.6687C40.0357 17.43 39.5799 17.2997 39.0807 17.3431C38.3861 17.3865 37.9085 17.8641 37.8434 18.537C37.7783 19.275 37.8217 19.9913 37.8 20.7293C37.8 20.8812 37.8434 20.9246 37.9954 20.9246C38.8419 20.9029 39.6884 20.9246 40.535 20.9029C40.6869 20.9029 40.752 20.9463 40.752 21.12C40.7303 22.0968 40.7303 23.0735 40.752 24.0286C40.752 24.2023 40.7086 24.2674 40.5133 24.2674C39.6884 24.2457 38.8853 24.2674 38.0822 24.2674C37.7783 24.2674 37.8 24.224 37.8 24.5496V32.0599C37.8 32.3421 37.8 32.3421 37.5178 32.3421H33.741C33.5673 32.3421 33.5239 32.2986 33.5239 32.125C33.5239 30.8443 33.5239 29.5637 33.5239 28.283Z" fill="white"/>
<path d="M124.798 2.99549L117.722 8.11814C117.223 8.55226 116.767 9.0515 116.68 9.70269C116.615 10.2888 116.68 10.788 117.201 11.3089C118.373 12.5028 120.457 12.5028 121.434 11.9167C122.345 11.3524 128.336 6.94601 129.291 6.22971C129.378 6.14288 129.443 6.07777 129.552 5.96924C129.856 5.55682 130.355 4.38469 129.422 3.27767C128.618 2.3009 126.708 2.06213 125.514 2.62649C125.297 2.73502 125.037 2.84355 124.798 2.99549Z" fill="white"/>
<path d="M124.798 2.99549C125.015 2.84355 125.276 2.73502 125.536 2.62649C126.708 2.06213 128.618 2.3009 129.443 3.27767C130.377 4.38469 129.877 5.57853 129.574 5.96924C129.487 6.05606 129.422 6.12118 129.313 6.22971C128.336 6.94601 122.345 11.3741 121.455 11.9167C120.457 12.5245 118.417 12.5245 117.223 11.3089C116.702 10.7663 116.637 10.2888 116.702 9.70269C116.767 9.0515 117.223 8.55226 117.744 8.11814L124.798 2.99549Z" fill="white"/>
<path d="M92.0653 2.82167L99.1415 7.94431C99.6408 8.37843 100.097 8.87768 100.183 9.52886C100.249 10.1149 100.183 10.6142 99.6625 11.1351C98.4903 12.329 96.4066 12.3289 95.4298 11.7429C94.5181 11.1785 88.5272 6.77218 87.5722 6.05588C87.4853 5.96906 87.4202 5.90394 87.3117 5.79541C87.0078 5.38299 86.5086 4.21086 87.4419 3.10385C88.245 2.12707 90.1552 1.8883 91.349 2.45266C91.5878 2.56119 91.8483 2.64802 92.0653 2.82167Z" fill="white"/>
<path d="M92.0653 2.82167L99.1415 7.94431C99.6408 8.37843 100.097 8.87768 100.183 9.52886C100.249 10.1149 100.183 10.6142 99.6625 11.1351C98.4903 12.329 96.4066 12.3289 95.4298 11.7429C94.5181 11.1785 88.5272 6.77218 87.5722 6.05588C87.4853 5.96906 87.4202 5.90394 87.3117 5.79541C87.0078 5.38299 86.5086 4.21086 87.4419 3.10385C88.245 2.12707 90.1552 1.8883 91.349 2.45266C91.5878 2.56119 91.8483 2.64802 92.0653 2.82167Z" fill="white"/>
<path d="M111.731 2.71327V2.58303C111.731 0.803129 110.298 0 108.519 0C106.739 0 105.284 0.955069 105.263 2.71327V7.35838C105.263 7.55373 105.284 7.72738 105.306 7.90103C105.61 9.22511 106.912 9.83288 108.475 9.83288C109.995 9.83288 111.254 9.13828 111.601 7.87932C111.644 7.70568 111.666 7.51032 111.666 7.33667L111.731 2.71327Z" fill="white"/>
<path d="M111.731 2.71327V2.58303C111.731 0.803129 110.298 0 108.519 0C106.739 0 105.284 0.955069 105.263 2.71327V7.35838C105.263 7.55373 105.284 7.72738 105.306 7.90103C105.61 9.22511 106.912 9.83288 108.475 9.83288C109.995 9.83288 111.254 9.13828 111.601 7.87932C111.644 7.70568 111.666 7.51032 111.666 7.33667L111.731 2.71327Z" fill="white"/>
<path d="M117.83 13.2626C119.697 14.196 121.108 15.3898 122.107 16.7139H94.1708L94.1925 16.6922H94.1491C96.5151 13.5014 101.16 11.3091 108.106 11.3091C112.252 11.3091 115.443 12.0688 117.83 13.2626Z" fill="white"/>
<path d="M7.08583 29.2164C8.51843 29.2599 9.79909 28.066 9.79909 26.5683C9.79909 25.114 8.64867 23.8984 7.10754 23.8984C5.45787 23.8984 4.43768 25.2659 4.41598 26.5683C4.39427 27.9358 5.58811 29.2381 7.08583 29.2164ZM9.58203 31.0398C9.36497 31.2134 9.19132 31.3653 9.01767 31.4956C8.25796 32.1034 7.38972 32.4289 6.43465 32.5158C5.04545 32.646 3.76479 32.4072 2.57096 31.6475C1.13835 30.7576 0.35693 29.4335 0.0964566 27.7838C-0.120605 26.3946 0.00963234 25.0489 0.682522 23.8116C1.61589 22.0317 3.0919 20.9464 5.11057 20.6425C6.17417 20.4906 7.19436 20.5774 8.19284 21.0332C8.62696 21.2286 8.99597 21.5325 9.34327 21.8798C9.40838 21.9449 9.4735 22.0317 9.53862 22.0968C9.56033 22.0751 9.58203 22.0751 9.60374 22.0534C9.60374 21.7495 9.62545 21.4456 9.60374 21.1201C9.60374 20.9681 9.64715 20.903 9.8208 20.903C11.1015 20.9247 12.3604 20.9247 13.6411 20.903C13.793 20.903 13.8364 20.9464 13.8364 21.0983C13.8364 24.8318 13.8581 28.587 13.8147 32.3204C13.8147 33.1887 13.7062 34.0569 13.2938 34.8383C12.686 36.0105 11.7526 36.8353 10.5588 37.3779C9.62545 37.8121 8.64867 37.9857 7.62848 38.0508C6.36953 38.1377 5.13228 38.0508 3.93844 37.6167C2.44072 37.0958 1.24688 36.1624 0.487167 34.7298C0.335224 34.4693 0.270106 34.1871 0.204987 33.8833C0.161575 33.7313 0.183281 33.6879 0.35693 33.6879C1.42053 33.6879 2.46242 33.6879 3.52602 33.6879H4.71986C4.80669 33.6879 4.8718 33.6879 4.91522 33.7964C5.17569 34.4693 5.71834 34.7949 6.39123 34.86C7.06412 34.9469 7.71531 34.9034 8.32308 34.5561C9.1045 34.122 9.4735 33.4491 9.56033 32.6026C9.60374 32.1034 9.58203 31.5824 9.58203 31.0398Z" fill="white"/>
</svg>
