<svg width="599" height="389" viewBox="0 0 599 389" fill="none" xmlns="http://www.w3.org/2000/svg">
<path opacity="0.4" d="M393.353 4.70133C411.599 4.70133 428.753 11.6593 441.653 24.2941C454.553 36.929 461.657 53.7304 461.657 71.6013V101.778C461.657 118.009 455.615 133.677 444.653 145.894L441.869 148.997L444.653 152.1C455.621 164.318 461.657 179.985 461.657 196.216V226.393C461.657 244.264 454.553 261.065 441.653 273.7C428.753 286.335 411.599 293.293 393.353 293.293H203.777C185.777 293.293 168.665 285.859 155.591 272.354C143.933 260.313 136.805 244.469 135.641 228.273H176.051C177.005 233.997 179.657 239.609 183.641 244.176C189.125 250.464 196.277 253.931 203.771 253.931H393.341C408.845 253.931 421.463 241.578 421.463 226.387V196.222C421.463 181.037 408.851 168.678 393.341 168.678H231.815V129.316H393.353C408.857 129.316 421.469 116.963 421.469 101.778V71.6013C421.469 56.416 408.857 44.0574 393.347 44.0574H203.777C196.283 44.0574 189.149 47.4012 183.695 53.4777C179.687 57.9381 177.023 63.468 176.063 69.1508H135.641C136.163 61.7285 137.909 54.4532 140.867 47.4541C144.341 39.2326 149.291 31.8045 155.579 25.3696C168.623 12.0413 185.741 4.70133 203.777 4.70133H393.353ZM393.353 0H203.777C163.469 0 130.673 34.3785 130.673 73.858H180.461C180.461 61.2643 190.919 48.7587 203.777 48.7587H393.347C406.223 48.7587 416.669 58.9841 416.669 71.6013V101.778C416.669 114.389 406.229 124.615 393.353 124.615H227.015V173.379H393.353C406.229 173.379 416.675 183.605 416.675 196.222V226.399C416.675 239.01 406.235 249.241 393.353 249.241H203.777C190.919 249.241 180.461 236.177 180.461 223.584H130.673C130.673 263.063 163.469 298.006 203.777 298.006H393.347C433.721 298.006 466.451 265.949 466.451 226.405V196.222C466.451 178.145 459.575 161.614 448.253 149.003C459.575 136.392 466.451 119.861 466.451 101.784V71.6072C466.457 32.0572 433.727 0 393.353 0Z" fill="white"/>
<path d="M511.575 151.521L519.565 145.78H321.728L313.773 152.805L297.823 138.98C297.869 138.839 298.007 138.741 298.17 138.741H308.265C308.464 138.741 308.627 138.897 308.627 139.088V144.355L314.619 139.088C314.619 135.729 311.771 133 308.265 133H298.17C294.664 133 291.815 135.729 291.815 139.088C291.815 140.625 292.498 142.1 293.686 143.135L294.511 143.847L292.381 145.78H77.5648L85.5552 151.521H286.755C285.94 152.932 285.502 154.538 285.502 156.174C285.502 161.041 289.634 165 294.715 165H304.835C307.393 165 309.839 164.087 311.72 162.422L313.799 160.587L318.88 164.995H327.848L318.237 156.667L324.072 151.517H511.575V151.521ZM307.658 158.205C306.884 158.888 305.88 159.264 304.83 159.264H294.71C292.931 159.264 291.484 157.878 291.484 156.174C291.484 155.114 291.943 154.089 292.748 153.362L294.771 151.526H294.903V151.409L298.965 147.719L309.34 156.725L307.658 158.205Z" fill="white"/>
<path d="M72.4609 105.695C70.7734 106.398 69.0742 107.031 67.3633 107.594C65.6523 108.156 63.8828 108.637 62.0547 109.035C60.2266 109.457 58.293 109.773 56.2539 109.984C54.2383 110.195 52.0703 110.301 49.75 110.301C44.8281 110.301 40.293 109.773 36.1445 108.719C32.0195 107.664 28.457 106.082 25.457 103.973C22.4805 101.84 20.1602 99.1914 18.4961 96.0273C16.832 92.8398 16 89.125 16 84.8828C16 80.6406 16.832 76.9375 18.4961 73.7734C20.1602 70.5859 22.4805 67.9375 25.457 65.8281C28.457 63.6953 32.0195 62.1016 36.1445 61.0469C40.293 59.9922 44.8281 59.4648 49.75 59.4648C52.0703 59.4648 54.2383 59.5703 56.2539 59.7812C58.293 59.9922 60.2266 60.3086 62.0547 60.7305C63.8828 61.1289 65.6523 61.6094 67.3633 62.1719C69.0742 62.7344 70.7734 63.3672 72.4609 64.0703V75.8125C71.125 75.0859 69.7188 74.3711 68.2422 73.668C66.7656 72.9414 65.1367 72.2969 63.3555 71.7344C61.5742 71.1484 59.6172 70.6797 57.4844 70.3281C55.3516 69.9531 52.9492 69.7656 50.2773 69.7656C46.1758 69.7656 42.7656 70.1875 40.0469 71.0312C37.3516 71.875 35.1953 73 33.5781 74.4062C31.9609 75.8125 30.8242 77.4297 30.168 79.2578C29.5117 81.0625 29.1836 82.9375 29.1836 84.8828C29.1836 86.1719 29.3242 87.4492 29.6055 88.7148C29.8867 89.957 30.3555 91.1406 31.0117 92.2656C31.668 93.3672 32.5234 94.3867 33.5781 95.3242C34.6328 96.2617 35.9453 97.0703 37.5156 97.75C39.0859 98.4297 40.9141 98.9688 43 99.3672C45.1094 99.7422 47.5352 99.9297 50.2773 99.9297C52.9492 99.9297 55.3516 99.7656 57.4844 99.4375C59.6172 99.0859 61.5742 98.6289 63.3555 98.0664C65.1367 97.5039 66.7656 96.8711 68.2422 96.168C69.7188 95.4414 71.125 94.7031 72.4609 93.9531V105.695Z" fill="white"/>
<path d="M154.333 84.8828C154.333 89.0312 153.571 92.6992 152.048 95.8867C150.524 99.0508 148.345 101.699 145.509 103.832C142.673 105.965 139.227 107.582 135.173 108.684C131.141 109.762 126.606 110.301 121.567 110.301C116.528 110.301 111.97 109.762 107.891 108.684C103.837 107.582 100.38 105.965 97.5203 103.832C94.6609 101.699 92.4578 99.0508 90.9109 95.8867C89.3641 92.6992 88.5906 89.0312 88.5906 84.8828C88.5906 80.7344 89.3641 77.0781 90.9109 73.9141C92.4578 70.7266 94.6609 68.0664 97.5203 65.9336C100.38 63.8008 103.837 62.1953 107.891 61.1172C111.97 60.0156 116.528 59.4648 121.567 59.4648C126.606 59.4648 131.141 60.0156 135.173 61.1172C139.227 62.1953 142.673 63.8008 145.509 65.9336C148.345 68.0664 150.524 70.7266 152.048 73.9141C153.571 77.0781 154.333 80.7344 154.333 84.8828ZM141.149 84.8828C141.149 83.0781 140.856 81.2852 140.27 79.5039C139.708 77.6992 138.688 76.082 137.212 74.6523C135.759 73.2227 133.766 72.0625 131.235 71.1719C128.704 70.2812 125.481 69.8359 121.567 69.8359C118.942 69.8359 116.634 70.0469 114.641 70.4688C112.649 70.8672 110.927 71.4297 109.473 72.1562C108.02 72.8828 106.802 73.7383 105.817 74.7227C104.833 75.6836 104.048 76.7266 103.462 77.8516C102.876 78.9531 102.454 80.1133 102.196 81.332C101.962 82.5273 101.845 83.7109 101.845 84.8828C101.845 86.0781 101.962 87.2852 102.196 88.5039C102.454 89.7227 102.876 90.8945 103.462 92.0195C104.048 93.1211 104.833 94.1523 105.817 95.1133C106.802 96.0742 108.02 96.918 109.473 97.6445C110.927 98.3477 112.649 98.9102 114.641 99.332C116.634 99.7305 118.942 99.9297 121.567 99.9297C125.481 99.9297 128.704 99.4844 131.235 98.5938C133.766 97.7031 135.759 96.543 137.212 95.1133C138.688 93.6836 139.708 92.0781 140.27 90.2969C140.856 88.4922 141.149 86.6875 141.149 84.8828Z" fill="white"/>
<path d="M234.834 109V75.0742L216.904 109H204.388L186.459 75.0742V109H173.416V60.6953H191.134L210.646 97.2578L230.158 60.6953H247.806V109H234.834Z" fill="white"/>
<path d="M331.541 109V75.0742L313.612 109H301.096L283.166 75.0742V109H270.123V60.6953H287.842L307.354 97.2578L326.866 60.6953H344.514V109H331.541Z" fill="white"/>
<path d="M405.644 99.8594H378.714L374.179 109H359.624L384.902 60.6953H399.456L424.734 109H410.179L405.644 99.8594ZM383.39 90.4375H401.038L392.249 72.6484L383.39 90.4375Z" fill="white"/>
<path d="M485.477 109L452.887 75.8125V109H439.844V60.6953H454.012L486.637 94.0234V60.6953H499.609V109H485.477Z" fill="white"/>
<path d="M581.094 84.8125C581.094 87.9062 580.755 90.6602 580.075 93.0742C579.395 95.4648 578.434 97.5508 577.192 99.332C575.973 101.113 574.497 102.625 572.762 103.867C571.052 105.109 569.141 106.105 567.032 106.855C564.923 107.605 562.649 108.156 560.212 108.508C557.774 108.836 555.231 109 552.583 109H521.927V60.6953H552.512C555.161 60.6953 557.704 60.8711 560.141 61.2227C562.579 61.5508 564.852 62.0898 566.962 62.8398C569.094 63.5898 571.028 64.5859 572.762 65.8281C574.497 67.0469 575.973 68.5586 577.192 70.3633C578.434 72.1445 579.395 74.2305 580.075 76.6211C580.755 79.0117 581.094 81.7422 581.094 84.8125ZM567.946 84.8125C567.946 82.4922 567.641 80.4766 567.032 78.7656C566.446 77.0547 565.485 75.6484 564.149 74.5469C562.837 73.4219 561.114 72.5898 558.981 72.0508C556.848 71.4883 554.247 71.207 551.177 71.207H534.969V98.4883H551.177C554.247 98.4883 556.848 98.2188 558.981 97.6797C561.114 97.1172 562.837 96.2734 564.149 95.1484C565.485 94 566.446 92.5703 567.032 90.8594C567.641 89.1484 567.946 87.1328 567.946 84.8125Z" fill="white"/>
<path d="M73.6225 225.695C71.935 226.398 70.2358 227.031 68.5248 227.594C66.8139 228.156 65.0444 228.637 63.2162 229.035C61.3881 229.457 59.4545 229.773 57.4155 229.984C55.3998 230.195 53.2319 230.301 50.9116 230.301C45.9897 230.301 41.4545 229.773 37.3061 228.719C33.1811 227.664 29.6186 226.082 26.6186 223.973C23.642 221.84 21.3217 219.191 19.6577 216.027C17.9936 212.84 17.1616 209.125 17.1616 204.883C17.1616 200.641 17.9936 196.938 19.6577 193.773C21.3217 190.586 23.642 187.938 26.6186 185.828C29.6186 183.695 33.1811 182.102 37.3061 181.047C41.4545 179.992 45.9897 179.465 50.9116 179.465C53.2319 179.465 55.3998 179.57 57.4155 179.781C59.4545 179.992 61.3881 180.309 63.2162 180.73C65.0444 181.129 66.8139 181.609 68.5248 182.172C70.2358 182.734 71.935 183.367 73.6225 184.07V195.812C72.2866 195.086 70.8803 194.371 69.4037 193.668C67.9272 192.941 66.2983 192.297 64.517 191.734C62.7358 191.148 60.7787 190.68 58.6459 190.328C56.5131 189.953 54.1108 189.766 51.4389 189.766C47.3373 189.766 43.9272 190.188 41.2084 191.031C38.5131 191.875 36.3569 193 34.7397 194.406C33.1225 195.812 31.9858 197.43 31.3295 199.258C30.6733 201.062 30.3452 202.938 30.3452 204.883C30.3452 206.172 30.4858 207.449 30.767 208.715C31.0483 209.957 31.517 211.141 32.1733 212.266C32.8295 213.367 33.685 214.387 34.7397 215.324C35.7944 216.262 37.1069 217.07 38.6772 217.75C40.2475 218.43 42.0756 218.969 44.1616 219.367C46.2709 219.742 48.6967 219.93 51.4389 219.93C54.1108 219.93 56.5131 219.766 58.6459 219.438C60.7787 219.086 62.7358 218.629 64.517 218.066C66.2983 217.504 67.9272 216.871 69.4037 216.168C70.8803 215.441 72.2866 214.703 73.6225 213.953V225.695Z" fill="white"/>
<path d="M161.974 204.883C161.974 209.031 161.213 212.699 159.689 215.887C158.166 219.051 155.986 221.699 153.15 223.832C150.314 225.965 146.869 227.582 142.814 228.684C138.783 229.762 134.248 230.301 129.209 230.301C124.17 230.301 119.611 229.762 115.533 228.684C111.478 227.582 108.021 225.965 105.162 223.832C102.302 221.699 100.099 219.051 98.5525 215.887C97.0056 212.699 96.2322 209.031 96.2322 204.883C96.2322 200.734 97.0056 197.078 98.5525 193.914C100.099 190.727 102.302 188.066 105.162 185.934C108.021 183.801 111.478 182.195 115.533 181.117C119.611 180.016 124.17 179.465 129.209 179.465C134.248 179.465 138.783 180.016 142.814 181.117C146.869 182.195 150.314 183.801 153.15 185.934C155.986 188.066 158.166 190.727 159.689 193.914C161.213 197.078 161.974 200.734 161.974 204.883ZM148.791 204.883C148.791 203.078 148.498 201.285 147.912 199.504C147.349 197.699 146.33 196.082 144.853 194.652C143.4 193.223 141.408 192.062 138.877 191.172C136.345 190.281 133.123 189.836 129.209 189.836C126.584 189.836 124.275 190.047 122.283 190.469C120.291 190.867 118.568 191.43 117.115 192.156C115.662 192.883 114.443 193.738 113.459 194.723C112.474 195.684 111.689 196.727 111.103 197.852C110.517 198.953 110.095 200.113 109.838 201.332C109.603 202.527 109.486 203.711 109.486 204.883C109.486 206.078 109.603 207.285 109.838 208.504C110.095 209.723 110.517 210.895 111.103 212.02C111.689 213.121 112.474 214.152 113.459 215.113C114.443 216.074 115.662 216.918 117.115 217.645C118.568 218.348 120.291 218.91 122.283 219.332C124.275 219.73 126.584 219.93 129.209 219.93C133.123 219.93 136.345 219.484 138.877 218.594C141.408 217.703 143.4 216.543 144.853 215.113C146.33 213.684 147.349 212.078 147.912 210.297C148.498 208.492 148.791 206.688 148.791 204.883Z" fill="white"/>
<path d="M233.17 229L200.58 195.812V229H187.537V180.695H201.705L234.33 214.023V180.695H247.303V229H233.17Z" fill="white"/>
<path d="M338.608 204.883C338.608 207.508 338.291 209.934 337.659 212.16C337.049 214.363 336.159 216.379 334.987 218.207C338.268 219.449 341.221 220.41 343.846 221.09L338.538 230.582C336.639 229.855 334.705 229.094 332.737 228.297C330.768 227.5 328.788 226.656 326.795 225.766C324.077 227.289 320.959 228.426 317.444 229.176C313.928 229.926 310.061 230.301 305.842 230.301C300.803 230.301 296.245 229.762 292.166 228.684C288.112 227.582 284.655 225.965 281.795 223.832C278.936 221.699 276.733 219.051 275.186 215.887C273.639 212.699 272.866 209.031 272.866 204.883C272.866 200.734 273.639 197.078 275.186 193.914C276.733 190.727 278.936 188.066 281.795 185.934C284.655 183.801 288.112 182.195 292.166 181.117C296.245 180.016 300.803 179.465 305.842 179.465C310.881 179.465 315.416 180.016 319.448 181.117C323.502 182.195 326.948 183.801 329.784 185.934C332.62 188.066 334.799 190.727 336.323 193.914C337.846 197.078 338.608 200.734 338.608 204.883ZM325.424 204.883C325.424 203.078 325.131 201.285 324.545 199.504C323.983 197.699 322.963 196.082 321.487 194.652C320.034 193.223 318.041 192.062 315.51 191.172C312.979 190.281 309.756 189.836 305.842 189.836C303.217 189.836 300.909 190.047 298.916 190.469C296.924 190.867 295.202 191.43 293.748 192.156C292.295 192.883 291.077 193.738 290.092 194.723C289.108 195.684 288.323 196.727 287.737 197.852C287.151 198.953 286.729 200.113 286.471 201.332C286.237 202.527 286.12 203.711 286.12 204.883C286.12 206.078 286.237 207.285 286.471 208.504C286.729 209.723 287.151 210.895 287.737 212.02C288.323 213.121 289.108 214.152 290.092 215.113C291.077 216.074 292.295 216.918 293.748 217.645C295.202 218.348 296.924 218.91 298.916 219.332C300.909 219.73 303.217 219.93 305.842 219.93C307.248 219.93 308.561 219.871 309.78 219.754C310.998 219.637 312.159 219.449 313.26 219.191C311.807 218.441 310.401 217.691 309.041 216.941C307.705 216.168 306.44 215.406 305.245 214.656L310.448 206.113C312.112 207.262 314.034 208.434 316.213 209.629C318.393 210.824 320.69 211.996 323.104 213.145C323.995 211.879 324.604 210.555 324.932 209.172C325.26 207.766 325.424 206.336 325.424 204.883Z" fill="white"/>
<path d="M421.194 212.723C421.194 215.137 420.596 217.41 419.401 219.543C418.206 221.676 416.413 223.539 414.022 225.133C411.632 226.727 408.643 227.992 405.057 228.93C401.495 229.844 397.323 230.301 392.542 230.301C387.76 230.301 383.565 229.844 379.956 228.93C376.37 227.992 373.382 226.727 370.991 225.133C368.6 223.539 366.807 221.676 365.612 219.543C364.417 217.41 363.819 215.137 363.819 212.723V180.695H376.827V208.047C376.827 209.664 377.026 211.199 377.425 212.652C377.846 214.082 378.62 215.336 379.745 216.414C380.893 217.492 382.487 218.348 384.526 218.98C386.589 219.613 389.26 219.93 392.542 219.93C395.8 219.93 398.448 219.613 400.487 218.98C402.526 218.348 404.108 217.492 405.233 216.414C406.382 215.336 407.155 214.082 407.553 212.652C407.952 211.199 408.151 209.664 408.151 208.047V180.695H421.194V212.723Z" fill="white"/>
<path d="M449.64 229V180.695H498.542V190.996H463.034V198.977H496.714V209.277H463.034V218.699H499.034V229H449.64Z" fill="white"/>
<path d="M538.378 229H525.335V180.695H558.031C561.546 180.695 564.523 181.059 566.96 181.785C569.421 182.512 571.414 183.543 572.937 184.879C574.484 186.215 575.597 187.832 576.277 189.73C576.98 191.605 577.331 193.703 577.331 196.023C577.331 198.062 577.039 199.844 576.453 201.367C575.89 202.891 575.117 204.203 574.132 205.305C573.171 206.383 572.046 207.297 570.757 208.047C569.468 208.797 568.109 209.418 566.679 209.91L582.499 229H567.242L552.617 211.211H538.378V229ZM564.148 195.953C564.148 195.016 564.019 194.219 563.761 193.562C563.527 192.906 563.105 192.379 562.496 191.98C561.886 191.559 561.066 191.254 560.035 191.066C559.027 190.879 557.761 190.785 556.238 190.785H538.378V201.121H556.238C557.761 201.121 559.027 201.027 560.035 200.84C561.066 200.652 561.886 200.359 562.496 199.961C563.105 199.539 563.527 199 563.761 198.344C564.019 197.688 564.148 196.891 564.148 195.953Z" fill="white"/>
<path d="M96.5113 270.059L109.871 260.848H118.607L102.347 272.432L119.697 285H110.187L96.5113 274.963V285H89.9547V260.848H96.5113V270.059Z" fill="white"/>
<path d="M148.3 280.43H134.835L132.568 285H125.29L137.929 260.848H145.206L157.845 285H150.568L148.3 280.43ZM137.173 275.719H145.997L141.603 266.824L137.173 275.719Z" fill="white"/>
<path d="M190.016 285L173.721 268.406V285H167.2V260.848H174.284L190.596 277.512V260.848H197.083V285H190.016Z" fill="white"/>
<path d="M210.041 285V260.848H234.493V265.998H216.739V269.988H233.579V275.139H216.739V279.85H234.739V285H210.041Z" fill="white"/>
<path d="M248.207 269.707H243.566L245.184 260.848H250.949L248.207 269.707Z" fill="white"/>
<path d="M283.279 267.65C282.822 267.428 282.218 267.176 281.468 266.895C280.718 266.613 279.869 266.35 278.92 266.104C277.97 265.846 276.939 265.635 275.826 265.471C274.712 265.295 273.57 265.207 272.398 265.207C271.461 265.207 270.658 265.236 269.99 265.295C269.334 265.354 268.777 265.43 268.32 265.523C267.875 265.617 267.517 265.729 267.248 265.857C266.99 265.975 266.791 266.098 266.65 266.227C266.509 266.355 266.416 266.484 266.369 266.613C266.334 266.742 266.316 266.859 266.316 266.965C266.316 267.316 266.492 267.627 266.843 267.896C267.195 268.154 267.675 268.389 268.285 268.6C268.894 268.799 269.603 268.992 270.412 269.18C271.22 269.355 272.076 269.543 272.978 269.742C273.892 269.93 274.83 270.141 275.791 270.375C276.763 270.598 277.701 270.861 278.603 271.166C279.517 271.471 280.379 271.828 281.187 272.238C281.996 272.637 282.705 273.105 283.314 273.645C283.923 274.184 284.404 274.805 284.755 275.508C285.107 276.211 285.283 277.014 285.283 277.916C285.283 279.076 285.078 280.072 284.668 280.904C284.257 281.736 283.707 282.439 283.015 283.014C282.336 283.588 281.545 284.051 280.642 284.402C279.74 284.742 278.791 285.006 277.795 285.193C276.81 285.381 275.808 285.504 274.789 285.562C273.781 285.621 272.82 285.65 271.906 285.65C269.515 285.65 267.3 285.451 265.261 285.053C263.234 284.666 261.441 284.18 259.882 283.594V277.828C261.488 278.719 263.316 279.416 265.367 279.92C267.429 280.424 269.632 280.676 271.976 280.676C273.359 280.676 274.484 280.605 275.351 280.465C276.23 280.312 276.916 280.125 277.408 279.902C277.9 279.668 278.234 279.416 278.41 279.146C278.586 278.877 278.673 278.619 278.673 278.373C278.673 277.986 278.498 277.652 278.146 277.371C277.795 277.078 277.314 276.826 276.705 276.615C276.095 276.393 275.386 276.193 274.578 276.018C273.769 275.83 272.908 275.648 271.994 275.473C271.091 275.285 270.16 275.086 269.199 274.875C268.238 274.664 267.3 274.418 266.386 274.137C265.484 273.844 264.629 273.51 263.82 273.135C263.011 272.748 262.302 272.297 261.693 271.781C261.084 271.254 260.603 270.65 260.252 269.971C259.9 269.279 259.724 268.482 259.724 267.58C259.724 266.514 259.912 265.594 260.287 264.82C260.662 264.047 261.166 263.391 261.798 262.852C262.443 262.301 263.181 261.855 264.013 261.516C264.857 261.176 265.742 260.912 266.668 260.725C267.593 260.537 268.531 260.408 269.48 260.338C270.429 260.268 271.332 260.232 272.187 260.232C273.125 260.232 274.086 260.279 275.07 260.373C276.066 260.467 277.045 260.602 278.005 260.777C278.966 260.941 279.892 261.135 280.783 261.357C281.685 261.58 282.517 261.814 283.279 262.061V267.65Z" fill="white"/>
<path d="M339.272 260.848L345.442 277.617L352.122 260.848H358.889L349.186 285H341.944L335.634 268.758L329.341 285H322.098L312.378 260.848H319.163L325.702 277.266L332.013 260.848H339.272Z" fill="white"/>
<path d="M374.977 285H368.455V260.848H384.803C386.561 260.848 388.049 261.029 389.268 261.393C390.498 261.756 391.495 262.271 392.256 262.939C393.03 263.607 393.586 264.416 393.926 265.365C394.278 266.303 394.454 267.352 394.454 268.512C394.454 269.531 394.307 270.422 394.014 271.184C393.733 271.945 393.346 272.602 392.854 273.152C392.373 273.691 391.811 274.148 391.166 274.523C390.522 274.898 389.842 275.209 389.127 275.455L397.038 285H389.409L382.096 276.105H374.977V285ZM387.862 268.477C387.862 268.008 387.797 267.609 387.668 267.281C387.551 266.953 387.34 266.689 387.036 266.49C386.731 266.279 386.321 266.127 385.805 266.033C385.301 265.939 384.668 265.893 383.907 265.893H374.977V271.061H383.907C384.668 271.061 385.301 271.014 385.805 270.92C386.321 270.826 386.731 270.68 387.036 270.48C387.34 270.27 387.551 270 387.668 269.672C387.797 269.344 387.862 268.945 387.862 268.477Z" fill="white"/>
<path d="M426.52 280.43H413.055L410.787 285H403.51L416.148 260.848H423.426L436.064 285H428.787L426.52 280.43ZM415.393 275.719H424.217L419.822 266.824L415.393 275.719Z" fill="white"/>
<path d="M457.548 266.104V285H451.027V266.104H440.779V260.848H467.814V266.104H457.548Z" fill="white"/>
<path d="M500.654 285V274.928H484.06V285H477.538V260.848H484.06V269.637H500.654V260.848H507.175V285H500.654Z" fill="white"/>
<path d="M125.704 368V345.92H136.36C139.816 345.92 141.544 347.648 141.544 351.104V354.72C141.544 357.429 140.478 359.072 138.344 359.648L142.184 367.168L141.704 368H138.376L134.28 359.904H129.608V368H125.704ZM129.608 356.384H136.232C137.171 356.384 137.64 355.915 137.64 354.976V350.848C137.64 349.909 137.171 349.44 136.232 349.44H129.608V356.384ZM162.329 368V345.92H177.177V349.44H166.233V354.784H176.217V358.304H166.233V364.48H177.177V368H162.329ZM197.486 368V345.92H202.254L208.974 360.224L215.662 345.92H220.462V368H216.558V352.544L210.702 364.992H207.214L201.39 352.544V368H197.486ZM239.78 367.232L246.596 345.92H252.644L259.46 367.232L258.948 368H255.716L254.18 363.104H245.028L243.524 368H240.292L239.78 367.232ZM246.116 359.584H253.124L249.924 349.44H249.316L246.116 359.584ZM277.838 366.528V364.48H287.726C288.665 364.48 289.134 364.011 289.134 363.072V360.64C289.134 359.808 288.771 359.317 288.046 359.168L281.55 357.888C279.075 357.376 277.838 355.701 277.838 352.864V351.104C277.838 347.648 279.566 345.92 283.022 345.92H290.51L292.398 347.392V349.44H283.15C282.211 349.44 281.742 349.909 281.742 350.848V352.96C281.742 353.792 282.105 354.283 282.83 354.432L289.326 355.712C291.801 356.224 293.038 357.888 293.038 360.704V362.816C293.038 366.272 291.31 368 287.854 368H279.726L277.838 366.528ZM311.565 349.44V345.92H329.389V349.44H322.413V368H318.509V349.44H311.565ZM348.892 368V345.92H363.74V349.44H352.796V354.784H362.78V358.304H352.796V364.48H363.74V368H348.892ZM384.048 368V345.92H394.704C398.16 345.92 399.888 347.648 399.888 351.104V354.72C399.888 357.429 398.821 359.072 396.688 359.648L400.528 367.168L400.048 368H396.72L392.624 359.904H387.952V368H384.048ZM387.952 356.384H394.576C395.515 356.384 395.984 355.915 395.984 354.976V350.848C395.984 349.909 395.515 349.44 394.576 349.44H387.952V356.384ZM420.673 368V345.92H435.521V349.44H424.577V354.784H434.561V358.304H424.577V364.48H435.521V368H420.673ZM455.829 368V345.92H464.309C470.069 345.92 472.949 348.8 472.949 354.56V359.36C472.949 365.12 470.069 368 464.309 368H455.829ZM459.733 364.48H464.533C467.541 364.48 469.045 362.976 469.045 359.968V353.952C469.045 350.944 467.541 349.44 464.533 349.44H459.733V364.48Z" fill="white"/>
<line y1="-1" x2="90" y2="-1" transform="matrix(1 0 0 -1 509 350)" stroke="#886B6C" stroke-width="2"/>
<line y1="-1" x2="60" y2="-1" transform="matrix(1 0 0 -1 509 367)" stroke="#886B6C" stroke-width="2"/>
<line x1="90" y1="351" y2="351" stroke="#886B6C" stroke-width="2"/>
<line x1="90" y1="368" x2="30" y2="368" stroke="#886B6C" stroke-width="2"/>
</svg>
