<svg width="660" height="363" viewBox="0 0 660 363" fill="none" xmlns="http://www.w3.org/2000/svg">
<path opacity="0.4" d="M424.353 4.70133C442.599 4.70133 459.753 11.6593 472.653 24.2941C485.553 36.929 492.657 53.7304 492.657 71.6013V101.778C492.657 118.009 486.615 133.677 475.653 145.894L472.869 148.997L475.653 152.1C486.621 164.318 492.657 179.985 492.657 196.216V226.393C492.657 244.264 485.553 261.065 472.653 273.7C459.753 286.335 442.599 293.293 424.353 293.293H234.777C216.777 293.293 199.665 285.859 186.591 272.354C174.933 260.313 167.805 244.469 166.641 228.273H207.051C208.005 233.997 210.657 239.609 214.641 244.176C220.125 250.464 227.277 253.931 234.771 253.931H424.341C439.845 253.931 452.463 241.578 452.463 226.387V196.222C452.463 181.037 439.851 168.678 424.341 168.678H262.815V129.316H424.353C439.857 129.316 452.469 116.963 452.469 101.778V71.6013C452.469 56.416 439.857 44.0574 424.347 44.0574H234.777C227.283 44.0574 220.149 47.4012 214.695 53.4777C210.687 57.9381 208.023 63.468 207.063 69.1508H166.641C167.163 61.7285 168.909 54.4532 171.867 47.4541C175.341 39.2326 180.291 31.8045 186.579 25.3696C199.623 12.0413 216.741 4.70133 234.777 4.70133H424.353ZM424.353 0H234.777C194.469 0 161.673 34.3785 161.673 73.858H211.461C211.461 61.2643 221.919 48.7587 234.777 48.7587H424.347C437.223 48.7587 447.669 58.9841 447.669 71.6013V101.778C447.669 114.389 437.229 124.615 424.353 124.615H258.015V173.379H424.353C437.229 173.379 447.675 183.605 447.675 196.222V226.399C447.675 239.01 437.235 249.241 424.353 249.241H234.777C221.919 249.241 211.461 236.177 211.461 223.584H161.673C161.673 263.063 194.469 298.006 234.777 298.006H424.347C464.721 298.006 497.451 265.949 497.451 226.405V196.222C497.451 178.145 490.575 161.614 479.253 149.003C490.575 136.392 497.451 119.861 497.451 101.784V71.6072C497.457 32.0572 464.727 0 424.353 0Z" fill="white"/>
<path d="M542.574 151.521L550.565 145.78H352.728L344.773 152.805L328.823 138.98C328.869 138.839 329.007 138.741 329.17 138.741H339.265C339.464 138.741 339.627 138.897 339.627 139.088V144.355L345.619 139.088C345.619 135.729 342.771 133 339.265 133H329.17C325.664 133 322.815 135.729 322.815 139.088C322.815 140.625 323.498 142.1 324.686 143.135L325.511 143.847L323.381 145.78H108.565L116.555 151.521H317.755C316.94 152.932 316.502 154.538 316.502 156.174C316.502 161.041 320.634 165 325.715 165H335.835C338.393 165 340.839 164.087 342.72 162.422L344.799 160.587L349.879 164.995H358.848L349.237 156.667L355.072 151.517H542.574V151.521ZM338.658 158.205C337.884 158.888 336.88 159.264 335.83 159.264H325.71C323.931 159.264 322.484 157.878 322.484 156.174C322.484 155.114 322.943 154.089 323.748 153.362L325.771 151.526H325.903V151.409L329.965 147.719L340.34 156.725L338.658 158.205Z" fill="white"/>
<path d="M103.461 105.695C101.773 106.398 100.074 107.031 98.3633 107.594C96.6523 108.156 94.8828 108.637 93.0547 109.035C91.2266 109.457 89.293 109.773 87.2539 109.984C85.2383 110.195 83.0703 110.301 80.75 110.301C75.8281 110.301 71.293 109.773 67.1445 108.719C63.0195 107.664 59.457 106.082 56.457 103.973C53.4805 101.84 51.1602 99.1914 49.4961 96.0273C47.832 92.8398 47 89.125 47 84.8828C47 80.6406 47.832 76.9375 49.4961 73.7734C51.1602 70.5859 53.4805 67.9375 56.457 65.8281C59.457 63.6953 63.0195 62.1016 67.1445 61.0469C71.293 59.9922 75.8281 59.4648 80.75 59.4648C83.0703 59.4648 85.2383 59.5703 87.2539 59.7812C89.293 59.9922 91.2266 60.3086 93.0547 60.7305C94.8828 61.1289 96.6523 61.6094 98.3633 62.1719C100.074 62.7344 101.773 63.3672 103.461 64.0703V75.8125C102.125 75.0859 100.719 74.3711 99.2422 73.668C97.7656 72.9414 96.1367 72.2969 94.3555 71.7344C92.5742 71.1484 90.6172 70.6797 88.4844 70.3281C86.3516 69.9531 83.9492 69.7656 81.2773 69.7656C77.1758 69.7656 73.7656 70.1875 71.0469 71.0312C68.3516 71.875 66.1953 73 64.5781 74.4062C62.9609 75.8125 61.8242 77.4297 61.168 79.2578C60.5117 81.0625 60.1836 82.9375 60.1836 84.8828C60.1836 86.1719 60.3242 87.4492 60.6055 88.7148C60.8867 89.957 61.3555 91.1406 62.0117 92.2656C62.668 93.3672 63.5234 94.3867 64.5781 95.3242C65.6328 96.2617 66.9453 97.0703 68.5156 97.75C70.0859 98.4297 71.9141 98.9688 74 99.3672C76.1094 99.7422 78.5352 99.9297 81.2773 99.9297C83.9492 99.9297 86.3516 99.7656 88.4844 99.4375C90.6172 99.0859 92.5742 98.6289 94.3555 98.0664C96.1367 97.5039 97.7656 96.8711 99.2422 96.168C100.719 95.4414 102.125 94.7031 103.461 93.9531V105.695Z" fill="white"/>
<path d="M185.333 84.8828C185.333 89.0312 184.571 92.6992 183.048 95.8867C181.524 99.0508 179.345 101.699 176.509 103.832C173.673 105.965 170.227 107.582 166.173 108.684C162.141 109.762 157.606 110.301 152.567 110.301C147.528 110.301 142.97 109.762 138.891 108.684C134.837 107.582 131.38 105.965 128.52 103.832C125.661 101.699 123.458 99.0508 121.911 95.8867C120.364 92.6992 119.591 89.0312 119.591 84.8828C119.591 80.7344 120.364 77.0781 121.911 73.9141C123.458 70.7266 125.661 68.0664 128.52 65.9336C131.38 63.8008 134.837 62.1953 138.891 61.1172C142.97 60.0156 147.528 59.4648 152.567 59.4648C157.606 59.4648 162.141 60.0156 166.173 61.1172C170.227 62.1953 173.673 63.8008 176.509 65.9336C179.345 68.0664 181.524 70.7266 183.048 73.9141C184.571 77.0781 185.333 80.7344 185.333 84.8828ZM172.149 84.8828C172.149 83.0781 171.856 81.2852 171.27 79.5039C170.708 77.6992 169.688 76.082 168.212 74.6523C166.759 73.2227 164.766 72.0625 162.235 71.1719C159.704 70.2812 156.481 69.8359 152.567 69.8359C149.942 69.8359 147.634 70.0469 145.641 70.4688C143.649 70.8672 141.927 71.4297 140.473 72.1562C139.02 72.8828 137.802 73.7383 136.817 74.7227C135.833 75.6836 135.048 76.7266 134.462 77.8516C133.876 78.9531 133.454 80.1133 133.196 81.332C132.962 82.5273 132.845 83.7109 132.845 84.8828C132.845 86.0781 132.962 87.2852 133.196 88.5039C133.454 89.7227 133.876 90.8945 134.462 92.0195C135.048 93.1211 135.833 94.1523 136.817 95.1133C137.802 96.0742 139.02 96.918 140.473 97.6445C141.927 98.3477 143.649 98.9102 145.641 99.332C147.634 99.7305 149.942 99.9297 152.567 99.9297C156.481 99.9297 159.704 99.4844 162.235 98.5938C164.766 97.7031 166.759 96.543 168.212 95.1133C169.688 93.6836 170.708 92.0781 171.27 90.2969C171.856 88.4922 172.149 86.6875 172.149 84.8828Z" fill="white"/>
<path d="M265.834 109V75.0742L247.904 109H235.388L217.459 75.0742V109H204.416V60.6953H222.134L241.646 97.2578L261.158 60.6953H278.806V109H265.834Z" fill="white"/>
<path d="M362.541 109V75.0742L344.612 109H332.096L314.166 75.0742V109H301.123V60.6953H318.842L338.354 97.2578L357.866 60.6953H375.514V109H362.541Z" fill="white"/>
<path d="M436.644 99.8594H409.714L405.179 109H390.624L415.902 60.6953H430.456L455.734 109H441.179L436.644 99.8594ZM414.39 90.4375H432.038L423.249 72.6484L414.39 90.4375Z" fill="white"/>
<path d="M516.477 109L483.887 75.8125V109H470.844V60.6953H485.012L517.637 94.0234V60.6953H530.609V109H516.477Z" fill="white"/>
<path d="M612.094 84.8125C612.094 87.9062 611.755 90.6602 611.075 93.0742C610.395 95.4648 609.434 97.5508 608.192 99.332C606.973 101.113 605.497 102.625 603.762 103.867C602.052 105.109 600.141 106.105 598.032 106.855C595.923 107.605 593.649 108.156 591.212 108.508C588.774 108.836 586.231 109 583.583 109H552.927V60.6953H583.512C586.161 60.6953 588.704 60.8711 591.141 61.2227C593.579 61.5508 595.852 62.0898 597.962 62.8398C600.094 63.5898 602.028 64.5859 603.762 65.8281C605.497 67.0469 606.973 68.5586 608.192 70.3633C609.434 72.1445 610.395 74.2305 611.075 76.6211C611.755 79.0117 612.094 81.7422 612.094 84.8125ZM598.946 84.8125C598.946 82.4922 598.641 80.4766 598.032 78.7656C597.446 77.0547 596.485 75.6484 595.149 74.5469C593.837 73.4219 592.114 72.5898 589.981 72.0508C587.848 71.4883 585.247 71.207 582.177 71.207H565.969V98.4883H582.177C585.247 98.4883 587.848 98.2188 589.981 97.6797C592.114 97.1172 593.837 96.2734 595.149 95.1484C596.485 94 597.446 92.5703 598.032 90.8594C598.641 89.1484 598.946 87.1328 598.946 84.8125Z" fill="white"/>
<path d="M104.623 225.695C102.935 226.398 101.236 227.031 99.5249 227.594C97.814 228.156 96.0444 228.637 94.2163 229.035C92.3882 229.457 90.4546 229.773 88.4155 229.984C86.3999 230.195 84.2319 230.301 81.9116 230.301C76.9897 230.301 72.4546 229.773 68.3062 228.719C64.1812 227.664 60.6187 226.082 57.6187 223.973C54.6421 221.84 52.3218 219.191 50.6577 216.027C48.9937 212.84 48.1616 209.125 48.1616 204.883C48.1616 200.641 48.9937 196.938 50.6577 193.773C52.3218 190.586 54.6421 187.938 57.6187 185.828C60.6187 183.695 64.1812 182.102 68.3062 181.047C72.4546 179.992 76.9897 179.465 81.9116 179.465C84.2319 179.465 86.3999 179.57 88.4155 179.781C90.4546 179.992 92.3882 180.309 94.2163 180.73C96.0444 181.129 97.814 181.609 99.5249 182.172C101.236 182.734 102.935 183.367 104.623 184.07V195.812C103.287 195.086 101.88 194.371 100.404 193.668C98.9272 192.941 97.2983 192.297 95.5171 191.734C93.7358 191.148 91.7788 190.68 89.646 190.328C87.5132 189.953 85.1108 189.766 82.439 189.766C78.3374 189.766 74.9272 190.188 72.2085 191.031C69.5132 191.875 67.3569 193 65.7397 194.406C64.1226 195.812 62.9858 197.43 62.3296 199.258C61.6733 201.062 61.3452 202.938 61.3452 204.883C61.3452 206.172 61.4858 207.449 61.7671 208.715C62.0483 209.957 62.5171 211.141 63.1733 212.266C63.8296 213.367 64.6851 214.387 65.7397 215.324C66.7944 216.262 68.1069 217.07 69.6772 217.75C71.2476 218.43 73.0757 218.969 75.1616 219.367C77.271 219.742 79.6968 219.93 82.439 219.93C85.1108 219.93 87.5132 219.766 89.646 219.438C91.7788 219.086 93.7358 218.629 95.5171 218.066C97.2983 217.504 98.9272 216.871 100.404 216.168C101.88 215.441 103.287 214.703 104.623 213.953V225.695Z" fill="white"/>
<path d="M192.974 204.883C192.974 209.031 192.213 212.699 190.689 215.887C189.166 219.051 186.986 221.699 184.15 223.832C181.314 225.965 177.869 227.582 173.814 228.684C169.783 229.762 165.248 230.301 160.209 230.301C155.17 230.301 150.611 229.762 146.533 228.684C142.478 227.582 139.021 225.965 136.162 223.832C133.303 221.699 131.099 219.051 129.553 215.887C128.006 212.699 127.232 209.031 127.232 204.883C127.232 200.734 128.006 197.078 129.553 193.914C131.099 190.727 133.303 188.066 136.162 185.934C139.021 183.801 142.478 182.195 146.533 181.117C150.611 180.016 155.17 179.465 160.209 179.465C165.248 179.465 169.783 180.016 173.814 181.117C177.869 182.195 181.314 183.801 184.15 185.934C186.986 188.066 189.166 190.727 190.689 193.914C192.213 197.078 192.974 200.734 192.974 204.883ZM179.791 204.883C179.791 203.078 179.498 201.285 178.912 199.504C178.349 197.699 177.33 196.082 175.853 194.652C174.4 193.223 172.408 192.062 169.877 191.172C167.346 190.281 164.123 189.836 160.209 189.836C157.584 189.836 155.275 190.047 153.283 190.469C151.291 190.867 149.568 191.43 148.115 192.156C146.662 192.883 145.443 193.738 144.459 194.723C143.474 195.684 142.689 196.727 142.103 197.852C141.517 198.953 141.096 200.113 140.838 201.332C140.603 202.527 140.486 203.711 140.486 204.883C140.486 206.078 140.603 207.285 140.838 208.504C141.096 209.723 141.517 210.895 142.103 212.02C142.689 213.121 143.474 214.152 144.459 215.113C145.443 216.074 146.662 216.918 148.115 217.645C149.568 218.348 151.291 218.91 153.283 219.332C155.275 219.73 157.584 219.93 160.209 219.93C164.123 219.93 167.346 219.484 169.877 218.594C172.408 217.703 174.4 216.543 175.853 215.113C177.33 213.684 178.349 212.078 178.912 210.297C179.498 208.492 179.791 206.688 179.791 204.883Z" fill="white"/>
<path d="M264.17 229L231.58 195.812V229H218.537V180.695H232.705L265.33 214.023V180.695H278.303V229H264.17Z" fill="white"/>
<path d="M369.608 204.883C369.608 207.508 369.291 209.934 368.659 212.16C368.049 214.363 367.159 216.379 365.987 218.207C369.268 219.449 372.221 220.41 374.846 221.09L369.538 230.582C367.639 229.855 365.706 229.094 363.737 228.297C361.768 227.5 359.788 226.656 357.795 225.766C355.077 227.289 351.959 228.426 348.444 229.176C344.928 229.926 341.061 230.301 336.842 230.301C331.803 230.301 327.245 229.762 323.166 228.684C319.112 227.582 315.655 225.965 312.795 223.832C309.936 221.699 307.733 219.051 306.186 215.887C304.639 212.699 303.866 209.031 303.866 204.883C303.866 200.734 304.639 197.078 306.186 193.914C307.733 190.727 309.936 188.066 312.795 185.934C315.655 183.801 319.112 182.195 323.166 181.117C327.245 180.016 331.803 179.465 336.842 179.465C341.881 179.465 346.416 180.016 350.448 181.117C354.502 182.195 357.948 183.801 360.784 185.934C363.62 188.066 365.799 190.727 367.323 193.914C368.846 197.078 369.608 200.734 369.608 204.883ZM356.424 204.883C356.424 203.078 356.131 201.285 355.545 199.504C354.983 197.699 353.963 196.082 352.487 194.652C351.034 193.223 349.041 192.062 346.51 191.172C343.979 190.281 340.756 189.836 336.842 189.836C334.217 189.836 331.909 190.047 329.916 190.469C327.924 190.867 326.202 191.43 324.749 192.156C323.295 192.883 322.077 193.738 321.092 194.723C320.108 195.684 319.323 196.727 318.737 197.852C318.151 198.953 317.729 200.113 317.471 201.332C317.237 202.527 317.12 203.711 317.12 204.883C317.12 206.078 317.237 207.285 317.471 208.504C317.729 209.723 318.151 210.895 318.737 212.02C319.323 213.121 320.108 214.152 321.092 215.113C322.077 216.074 323.295 216.918 324.749 217.645C326.202 218.348 327.924 218.91 329.916 219.332C331.909 219.73 334.217 219.93 336.842 219.93C338.249 219.93 339.561 219.871 340.78 219.754C341.999 219.637 343.159 219.449 344.26 219.191C342.807 218.441 341.401 217.691 340.041 216.941C338.706 216.168 337.44 215.406 336.245 214.656L341.448 206.113C343.112 207.262 345.034 208.434 347.213 209.629C349.393 210.824 351.69 211.996 354.104 213.145C354.995 211.879 355.604 210.555 355.932 209.172C356.26 207.766 356.424 206.336 356.424 204.883Z" fill="white"/>
<path d="M452.194 212.723C452.194 215.137 451.596 217.41 450.401 219.543C449.206 221.676 447.413 223.539 445.022 225.133C442.632 226.727 439.643 227.992 436.057 228.93C432.495 229.844 428.323 230.301 423.542 230.301C418.761 230.301 414.565 229.844 410.956 228.93C407.37 227.992 404.382 226.727 401.991 225.133C399.6 223.539 397.807 221.676 396.612 219.543C395.417 217.41 394.819 215.137 394.819 212.723V180.695H407.827V208.047C407.827 209.664 408.026 211.199 408.425 212.652C408.846 214.082 409.62 215.336 410.745 216.414C411.893 217.492 413.487 218.348 415.526 218.98C417.589 219.613 420.261 219.93 423.542 219.93C426.8 219.93 429.448 219.613 431.487 218.98C433.526 218.348 435.108 217.492 436.233 216.414C437.382 215.336 438.155 214.082 438.553 212.652C438.952 211.199 439.151 209.664 439.151 208.047V180.695H452.194V212.723Z" fill="white"/>
<path d="M480.64 229V180.695H529.542V190.996H494.034V198.977H527.714V209.277H494.034V218.699H530.034V229H480.64Z" fill="white"/>
<path d="M569.378 229H556.335V180.695H589.031C592.546 180.695 595.523 181.059 597.96 181.785C600.421 182.512 602.414 183.543 603.937 184.879C605.484 186.215 606.597 187.832 607.277 189.73C607.98 191.605 608.332 193.703 608.332 196.023C608.332 198.062 608.039 199.844 607.453 201.367C606.89 202.891 606.117 204.203 605.132 205.305C604.171 206.383 603.046 207.297 601.757 208.047C600.468 208.797 599.109 209.418 597.679 209.91L613.5 229H598.242L583.617 211.211H569.378V229ZM595.148 195.953C595.148 195.016 595.019 194.219 594.761 193.562C594.527 192.906 594.105 192.379 593.496 191.98C592.886 191.559 592.066 191.254 591.035 191.066C590.027 190.879 588.761 190.785 587.238 190.785H569.378V201.121H587.238C588.761 201.121 590.027 201.027 591.035 200.84C592.066 200.652 592.886 200.359 593.496 199.961C594.105 199.539 594.527 199 594.761 198.344C595.019 197.688 595.148 196.891 595.148 195.953Z" fill="white"/>
<path d="M127.511 270.059L140.871 260.848H149.607L133.347 272.432L150.697 285H141.187L127.511 274.963V285H120.955V260.848H127.511V270.059Z" fill="white"/>
<path d="M179.3 280.43H165.835L163.568 285H156.29L168.929 260.848H176.206L188.845 285H181.568L179.3 280.43ZM168.173 275.719H176.997L172.603 266.824L168.173 275.719Z" fill="white"/>
<path d="M221.016 285L204.722 268.406V285H198.2V260.848H205.284L221.597 277.512V260.848H228.083V285H221.016Z" fill="white"/>
<path d="M241.041 285V260.848H265.493V265.998H247.739V269.988H264.579V275.139H247.739V279.85H265.739V285H241.041Z" fill="white"/>
<path d="M279.207 269.707H274.566L276.184 260.848H281.949L279.207 269.707Z" fill="white"/>
<path d="M314.279 267.65C313.822 267.428 313.218 267.176 312.468 266.895C311.718 266.613 310.869 266.35 309.92 266.104C308.97 265.846 307.939 265.635 306.826 265.471C305.713 265.295 304.57 265.207 303.398 265.207C302.461 265.207 301.658 265.236 300.99 265.295C300.334 265.354 299.777 265.43 299.32 265.523C298.875 265.617 298.517 265.729 298.248 265.857C297.99 265.975 297.791 266.098 297.65 266.227C297.509 266.355 297.416 266.484 297.369 266.613C297.334 266.742 297.316 266.859 297.316 266.965C297.316 267.316 297.492 267.627 297.843 267.896C298.195 268.154 298.675 268.389 299.285 268.6C299.894 268.799 300.603 268.992 301.412 269.18C302.22 269.355 303.076 269.543 303.978 269.742C304.892 269.93 305.83 270.141 306.791 270.375C307.763 270.598 308.701 270.861 309.603 271.166C310.517 271.471 311.379 271.828 312.187 272.238C312.996 272.637 313.705 273.105 314.314 273.645C314.923 274.184 315.404 274.805 315.755 275.508C316.107 276.211 316.283 277.014 316.283 277.916C316.283 279.076 316.078 280.072 315.668 280.904C315.257 281.736 314.707 282.439 314.015 283.014C313.336 283.588 312.545 284.051 311.642 284.402C310.74 284.742 309.791 285.006 308.795 285.193C307.81 285.381 306.808 285.504 305.789 285.562C304.781 285.621 303.82 285.65 302.906 285.65C300.515 285.65 298.3 285.451 296.261 285.053C294.234 284.666 292.441 284.18 290.882 283.594V277.828C292.488 278.719 294.316 279.416 296.367 279.92C298.429 280.424 300.632 280.676 302.976 280.676C304.359 280.676 305.484 280.605 306.351 280.465C307.23 280.312 307.916 280.125 308.408 279.902C308.9 279.668 309.234 279.416 309.41 279.146C309.586 278.877 309.673 278.619 309.673 278.373C309.673 277.986 309.498 277.652 309.146 277.371C308.795 277.078 308.314 276.826 307.705 276.615C307.095 276.393 306.386 276.193 305.578 276.018C304.769 275.83 303.908 275.648 302.994 275.473C302.091 275.285 301.16 275.086 300.199 274.875C299.238 274.664 298.3 274.418 297.386 274.137C296.484 273.844 295.629 273.51 294.82 273.135C294.011 272.748 293.302 272.297 292.693 271.781C292.084 271.254 291.603 270.65 291.252 269.971C290.9 269.279 290.724 268.482 290.724 267.58C290.724 266.514 290.912 265.594 291.287 264.82C291.662 264.047 292.166 263.391 292.798 262.852C293.443 262.301 294.181 261.855 295.013 261.516C295.857 261.176 296.742 260.912 297.668 260.725C298.593 260.537 299.531 260.408 300.48 260.338C301.429 260.268 302.332 260.232 303.187 260.232C304.125 260.232 305.086 260.279 306.07 260.373C307.066 260.467 308.045 260.602 309.005 260.777C309.966 260.941 310.892 261.135 311.783 261.357C312.685 261.58 313.517 261.814 314.279 262.061V267.65Z" fill="white"/>
<path d="M370.272 260.848L376.442 277.617L383.122 260.848H389.889L380.186 285H372.944L366.634 268.758L360.341 285H353.098L343.378 260.848H350.163L356.702 277.266L363.013 260.848H370.272Z" fill="white"/>
<path d="M405.977 285H399.456V260.848H415.803C417.561 260.848 419.049 261.029 420.268 261.393C421.498 261.756 422.495 262.271 423.256 262.939C424.03 263.607 424.586 264.416 424.926 265.365C425.278 266.303 425.454 267.352 425.454 268.512C425.454 269.531 425.307 270.422 425.014 271.184C424.733 271.945 424.346 272.602 423.854 273.152C423.373 273.691 422.811 274.148 422.166 274.523C421.522 274.898 420.842 275.209 420.127 275.455L428.038 285H420.409L413.096 276.105H405.977V285ZM418.862 268.477C418.862 268.008 418.797 267.609 418.668 267.281C418.551 266.953 418.34 266.689 418.036 266.49C417.731 266.279 417.321 266.127 416.805 266.033C416.301 265.939 415.668 265.893 414.907 265.893H405.977V271.061H414.907C415.668 271.061 416.301 271.014 416.805 270.92C417.321 270.826 417.731 270.68 418.036 270.48C418.34 270.27 418.551 270 418.668 269.672C418.797 269.344 418.862 268.945 418.862 268.477Z" fill="white"/>
<path d="M457.52 280.43H444.055L441.787 285H434.51L447.148 260.848H454.426L467.065 285H459.787L457.52 280.43ZM446.393 275.719H455.217L450.822 266.824L446.393 275.719Z" fill="white"/>
<path d="M488.548 266.104V285H482.027V266.104H471.779V260.848H498.814V266.104H488.548Z" fill="white"/>
<path d="M531.654 285V274.928H515.06V285H508.538V260.848H515.06V269.637H531.654V260.848H538.175V285H531.654Z" fill="white"/>
<path d="M138.17 353.114V350.488L143.838 338.06H146.542L146.906 338.736L141.68 350.202H147.088V344.82H150.286V356H147.088V353.114H138.17ZM166.955 356V338.06H170.127V345.912L177.173 338.06H180.137L180.449 338.71L174.417 345.444L181.073 355.35L180.761 356H177.849L172.363 347.758L170.127 350.15V356H166.955ZM214.703 340.946V338.06H229.185V340.946H223.543V356H220.345V340.946H214.703ZM245.031 356V338.06H257.095V340.946H248.203V345.262H256.315V348.148H248.203V353.114H257.095V356H245.031ZM272.14 355.35L277.86 346.77L272.478 338.71L272.79 338.06H275.572L279.602 344.248L283.658 338.06H286.44L286.752 338.71L281.37 346.77L287.09 355.35L286.778 356H283.996L279.602 349.292L275.234 356H272.452L272.14 355.35ZM301.463 340.946V338.06H315.945V340.946H310.303V356H307.105V340.946H301.463ZM331.635 351.762V338.06H334.807V351.996C334.807 352.741 335.188 353.114 335.951 353.114H341.229C341.992 353.114 342.373 352.741 342.373 351.996V338.06H345.545V351.762C345.545 354.587 344.132 356 341.307 356H335.873C333.048 356 331.635 354.587 331.635 351.762ZM362.818 356V338.06H371.45C374.276 338.06 375.688 339.473 375.688 342.298V345.236C375.688 347.42 374.822 348.746 373.088 349.214L376.208 355.324L375.818 356H373.114L369.786 349.448H365.99V356H362.818ZM365.99 346.562H371.372C372.135 346.562 372.516 346.181 372.516 345.418V342.064C372.516 341.319 372.135 340.946 371.372 340.946H365.99V346.562ZM392.576 356V338.06H404.64V340.946H395.748V345.262H403.86V348.148H395.748V353.114H404.64V356H392.576ZM440.387 356V338.06H444.287L449.669 349.552L455.051 338.06H458.951V356H455.753V343.468L451.021 353.556H448.291L443.559 343.468V356H440.387ZM476.105 351.762V342.298C476.105 339.473 477.518 338.06 480.343 338.06H486.297C489.123 338.06 490.535 339.473 490.535 342.298V351.762C490.535 354.587 489.123 356 486.297 356H480.343C477.518 356 476.105 354.587 476.105 351.762ZM479.277 351.996C479.277 352.741 479.659 353.114 480.421 353.114H486.219C486.982 353.114 487.363 352.741 487.363 351.996V342.064C487.363 341.319 486.982 340.946 486.219 340.946H480.421C479.659 340.946 479.277 341.319 479.277 342.064V351.996ZM507.697 356V338.06H514.587C519.267 338.06 521.607 340.409 521.607 345.106V348.954C521.607 353.651 519.267 356 514.587 356H507.697ZM510.869 353.114H514.769C517.213 353.114 518.435 351.892 518.435 349.448V344.612C518.435 342.168 517.213 340.946 514.769 340.946H510.869V353.114Z" fill="white"/>
<line y1="-1" x2="90" y2="-1" transform="matrix(1 0 0 -1 570 333)" stroke="white" stroke-opacity="0.5" stroke-width="2"/>
<line y1="-1" x2="60" y2="-1" transform="matrix(1 0 0 -1 570 354)" stroke="white" stroke-opacity="0.5" stroke-width="2"/>
<line x1="90" y1="338" y2="338" stroke="white" stroke-opacity="0.5" stroke-width="2"/>
<line x1="90" y1="355" x2="30" y2="355" stroke="white" stroke-opacity="0.5" stroke-width="2"/>
</svg>
