<svg width="567" height="299" viewBox="0 0 567 299" fill="none" xmlns="http://www.w3.org/2000/svg">
<path opacity="0.4" d="M377.788 4.70133C396.034 4.70133 413.188 11.6593 426.088 24.2941C438.988 36.929 446.092 53.7304 446.092 71.6013V101.778C446.092 118.009 440.05 133.677 429.088 145.894L426.304 148.997L429.088 152.1C440.056 164.318 446.092 179.985 446.092 196.216V226.393C446.092 244.264 438.988 261.065 426.088 273.7C413.188 286.335 396.034 293.293 377.788 293.293H188.212C170.212 293.293 153.1 285.859 140.026 272.354C128.368 260.313 121.24 244.469 120.076 228.273H160.486C161.44 233.997 164.092 239.609 168.076 244.176C173.56 250.464 180.712 253.931 188.206 253.931H377.776C393.28 253.931 405.898 241.578 405.898 226.387V196.222C405.898 181.037 393.286 168.678 377.776 168.678H216.25V129.316H377.788C393.292 129.316 405.904 116.963 405.904 101.778V71.6013C405.904 56.416 393.292 44.0574 377.782 44.0574H188.212C180.718 44.0574 173.584 47.4012 168.13 53.4777C164.122 57.9381 161.458 63.468 160.498 69.1508H120.076C120.598 61.7285 122.344 54.4532 125.302 47.4541C128.776 39.2326 133.726 31.8045 140.014 25.3696C153.058 12.0413 170.176 4.70133 188.212 4.70133H377.788ZM377.788 0H188.212C147.904 0 115.108 34.3785 115.108 73.858H164.896C164.896 61.2643 175.354 48.7587 188.212 48.7587H377.782C390.658 48.7587 401.104 58.9841 401.104 71.6013V101.778C401.104 114.389 390.664 124.615 377.788 124.615H211.45V173.379H377.788C390.664 173.379 401.11 183.605 401.11 196.222V226.399C401.11 239.01 390.67 249.241 377.788 249.241H188.212C175.354 249.241 164.896 236.177 164.896 223.584H115.108C115.108 263.063 147.904 298.006 188.212 298.006H377.782C418.156 298.006 450.886 265.949 450.886 226.405V196.222C450.886 178.145 444.01 161.614 432.688 149.003C444.01 136.392 450.886 119.861 450.886 101.784V71.6072C450.892 32.0572 418.162 0 377.788 0Z" fill="white"/>
<path d="M496.01 151.521L504 145.78H306.163L298.209 152.805L282.259 138.98C282.304 138.839 282.442 138.741 282.605 138.741H292.7C292.899 138.741 293.062 138.897 293.062 139.088V144.355L299.055 139.088C299.055 135.729 296.206 133 292.7 133H282.605C279.099 133 276.251 135.729 276.251 139.088C276.251 140.625 276.933 142.1 278.121 143.135L278.946 143.847L276.816 145.78H62L69.9903 151.521H271.19C270.375 152.932 269.937 154.538 269.937 156.174C269.937 161.041 274.07 165 279.15 165H289.271C291.829 165 294.275 164.087 296.155 162.422L298.234 160.587L303.315 164.995H312.283L302.673 156.667L308.507 151.517H496.01V151.521ZM292.094 158.205C291.319 158.888 290.315 159.264 289.265 159.264H279.145C277.367 159.264 275.919 157.878 275.919 156.174C275.919 155.114 276.378 154.089 277.183 153.362L279.206 151.526H279.339V151.409L283.4 147.719L293.775 156.725L292.094 158.205Z" fill="white"/>
<path d="M56.8961 105.695C55.2086 106.398 53.5094 107.031 51.7985 107.594C50.0875 108.156 48.318 108.637 46.4899 109.035C44.6617 109.457 42.7281 109.773 40.6891 109.984C38.6735 110.195 36.5055 110.301 34.1852 110.301C29.2633 110.301 24.7281 109.773 20.5797 108.719C16.4547 107.664 12.8922 106.082 9.89221 103.973C6.91565 101.84 4.59534 99.1914 2.93127 96.0273C1.26721 92.8398 0.435181 89.125 0.435181 84.8828C0.435181 80.6406 1.26721 76.9375 2.93127 73.7734C4.59534 70.5859 6.91565 67.9375 9.89221 65.8281C12.8922 63.6953 16.4547 62.1016 20.5797 61.0469C24.7281 59.9922 29.2633 59.4648 34.1852 59.4648C36.5055 59.4648 38.6735 59.5703 40.6891 59.7812C42.7281 59.9922 44.6617 60.3086 46.4899 60.7305C48.318 61.1289 50.0875 61.6094 51.7985 62.1719C53.5094 62.7344 55.2086 63.3672 56.8961 64.0703V75.8125C55.5602 75.0859 54.1539 74.3711 52.6774 73.668C51.2008 72.9414 49.5719 72.2969 47.7906 71.7344C46.0094 71.1484 44.0524 70.6797 41.9196 70.3281C39.7867 69.9531 37.3844 69.7656 34.7125 69.7656C30.611 69.7656 27.2008 70.1875 24.4821 71.0312C21.7867 71.875 19.6305 73 18.0133 74.4062C16.3961 75.8125 15.2594 77.4297 14.6031 79.2578C13.9469 81.0625 13.6188 82.9375 13.6188 84.8828C13.6188 86.1719 13.7594 87.4492 14.0406 88.7148C14.3219 89.957 14.7906 91.1406 15.4469 92.2656C16.1031 93.3672 16.9586 94.3867 18.0133 95.3242C19.068 96.2617 20.3805 97.0703 21.9508 97.75C23.5211 98.4297 25.3492 98.9688 27.4352 99.3672C29.5446 99.7422 31.9703 99.9297 34.7125 99.9297C37.3844 99.9297 39.7867 99.7656 41.9196 99.4375C44.0524 99.0859 46.0094 98.6289 47.7906 98.0664C49.5719 97.5039 51.2008 96.8711 52.6774 96.168C54.1539 95.4414 55.5602 94.7031 56.8961 93.9531V105.695Z" fill="white"/>
<path d="M138.768 84.8828C138.768 89.0312 138.006 92.6992 136.483 95.8867C134.959 99.0508 132.78 101.699 129.944 103.832C127.108 105.965 123.663 107.582 119.608 108.684C115.577 109.762 111.041 110.301 106.002 110.301C100.963 110.301 96.4047 109.762 92.3266 108.684C88.2719 107.582 84.8149 105.965 81.9555 103.832C79.0961 101.699 76.893 99.0508 75.3461 95.8867C73.7992 92.6992 73.0258 89.0312 73.0258 84.8828C73.0258 80.7344 73.7992 77.0781 75.3461 73.9141C76.893 70.7266 79.0961 68.0664 81.9555 65.9336C84.8149 63.8008 88.2719 62.1953 92.3266 61.1172C96.4047 60.0156 100.963 59.4648 106.002 59.4648C111.041 59.4648 115.577 60.0156 119.608 61.1172C123.663 62.1953 127.108 63.8008 129.944 65.9336C132.78 68.0664 134.959 70.7266 136.483 73.9141C138.006 77.0781 138.768 80.7344 138.768 84.8828ZM125.584 84.8828C125.584 83.0781 125.291 81.2852 124.705 79.5039C124.143 77.6992 123.123 76.082 121.647 74.6523C120.194 73.2227 118.202 72.0625 115.67 71.1719C113.139 70.2812 109.916 69.8359 106.002 69.8359C103.377 69.8359 101.069 70.0469 99.0766 70.4688C97.0844 70.8672 95.3617 71.4297 93.9086 72.1562C92.4555 72.8828 91.2367 73.7383 90.2524 74.7227C89.268 75.6836 88.4828 76.7266 87.8969 77.8516C87.311 78.9531 86.8891 80.1133 86.6313 81.332C86.3969 82.5273 86.2797 83.7109 86.2797 84.8828C86.2797 86.0781 86.3969 87.2852 86.6313 88.5039C86.8891 89.7227 87.311 90.8945 87.8969 92.0195C88.4828 93.1211 89.268 94.1523 90.2524 95.1133C91.2367 96.0742 92.4555 96.918 93.9086 97.6445C95.3617 98.3477 97.0844 98.9102 99.0766 99.332C101.069 99.7305 103.377 99.9297 106.002 99.9297C109.916 99.9297 113.139 99.4844 115.67 98.5938C118.202 97.7031 120.194 96.543 121.647 95.1133C123.123 93.6836 124.143 92.0781 124.705 90.2969C125.291 88.4922 125.584 86.6875 125.584 84.8828Z" fill="white"/>
<path d="M219.269 109V75.0742L201.339 109H188.823L170.894 75.0742V109H157.851V60.6953H175.57L195.081 97.2578L214.593 60.6953H232.241V109H219.269Z" fill="white"/>
<path d="M315.977 109V75.0742L298.047 109H285.531L267.602 75.0742V109H254.559V60.6953H272.277L291.789 97.2578L311.301 60.6953H328.949V109H315.977Z" fill="white"/>
<path d="M390.079 99.8594H363.149L358.614 109H344.059L369.337 60.6953H383.891L409.169 109H394.614L390.079 99.8594ZM367.825 90.4375H385.473L376.684 72.6484L367.825 90.4375Z" fill="white"/>
<path d="M469.912 109L437.322 75.8125V109H424.279V60.6953H438.447L471.072 94.0234V60.6953H484.045V109H469.912Z" fill="white"/>
<path d="M565.53 84.8125C565.53 87.9062 565.19 90.6602 564.51 93.0742C563.83 95.4648 562.87 97.5508 561.627 99.332C560.409 101.113 558.932 102.625 557.198 103.867C555.487 105.109 553.577 106.105 551.467 106.855C549.358 107.605 547.084 108.156 544.647 108.508C542.209 108.836 539.666 109 537.018 109H506.362V60.6953H536.948C539.596 60.6953 542.139 60.8711 544.577 61.2227C547.014 61.5508 549.287 62.0898 551.397 62.8398C553.53 63.5898 555.463 64.5859 557.198 65.8281C558.932 67.0469 560.409 68.5586 561.627 70.3633C562.87 72.1445 563.83 74.2305 564.51 76.6211C565.19 79.0117 565.53 81.7422 565.53 84.8125ZM552.381 84.8125C552.381 82.4922 552.077 80.4766 551.467 78.7656C550.881 77.0547 549.92 75.6484 548.584 74.5469C547.272 73.4219 545.549 72.5898 543.416 72.0508C541.284 71.4883 538.682 71.207 535.612 71.207H519.405V98.4883H535.612C538.682 98.4883 541.284 98.2188 543.416 97.6797C545.549 97.1172 547.272 96.2734 548.584 95.1484C549.92 94 550.881 92.5703 551.467 90.8594C552.077 89.1484 552.381 87.1328 552.381 84.8125Z" fill="white"/>
<path d="M58.0577 225.695C56.3702 226.398 54.671 227.031 52.96 227.594C51.2491 228.156 49.4796 228.637 47.6514 229.035C45.8233 229.457 43.8897 229.773 41.8506 229.984C39.835 230.195 37.6671 230.301 35.3467 230.301C30.4249 230.301 25.8897 229.773 21.7413 228.719C17.6163 227.664 14.0538 226.082 11.0538 223.973C8.07721 221.84 5.7569 219.191 4.09283 216.027C2.42877 212.84 1.59674 209.125 1.59674 204.883C1.59674 200.641 2.42877 196.938 4.09283 193.773C5.7569 190.586 8.07721 187.938 11.0538 185.828C14.0538 183.695 17.6163 182.102 21.7413 181.047C25.8897 179.992 30.4249 179.465 35.3467 179.465C37.6671 179.465 39.835 179.57 41.8506 179.781C43.8897 179.992 45.8233 180.309 47.6514 180.73C49.4796 181.129 51.2491 181.609 52.96 182.172C54.671 182.734 56.3702 183.367 58.0577 184.07V195.812C56.7217 195.086 55.3155 194.371 53.8389 193.668C52.3624 192.941 50.7335 192.297 48.9522 191.734C47.171 191.148 45.2139 190.68 43.0811 190.328C40.9483 189.953 38.546 189.766 35.8741 189.766C31.7725 189.766 28.3624 190.188 25.6436 191.031C22.9483 191.875 20.7921 193 19.1749 194.406C17.5577 195.812 16.421 197.43 15.7647 199.258C15.1085 201.062 14.7803 202.938 14.7803 204.883C14.7803 206.172 14.921 207.449 15.2022 208.715C15.4835 209.957 15.9522 211.141 16.6085 212.266C17.2647 213.367 18.1202 214.387 19.1749 215.324C20.2296 216.262 21.5421 217.07 23.1124 217.75C24.6827 218.43 26.5108 218.969 28.5967 219.367C30.7061 219.742 33.1319 219.93 35.8741 219.93C38.546 219.93 40.9483 219.766 43.0811 219.438C45.2139 219.086 47.171 218.629 48.9522 218.066C50.7335 217.504 52.3624 216.871 53.8389 216.168C55.3155 215.441 56.7217 214.703 58.0577 213.953V225.695Z" fill="white"/>
<path d="M146.41 204.883C146.41 209.031 145.648 212.699 144.124 215.887C142.601 219.051 140.421 221.699 137.585 223.832C134.749 225.965 131.304 227.582 127.249 228.684C123.218 229.762 118.683 230.301 113.644 230.301C108.605 230.301 104.046 229.762 99.9681 228.684C95.9135 227.582 92.4564 225.965 89.597 223.832C86.7377 221.699 84.5345 219.051 82.9877 215.887C81.4408 212.699 80.6674 209.031 80.6674 204.883C80.6674 200.734 81.4408 197.078 82.9877 193.914C84.5345 190.727 86.7377 188.066 89.597 185.934C92.4564 183.801 95.9135 182.195 99.9681 181.117C104.046 180.016 108.605 179.465 113.644 179.465C118.683 179.465 123.218 180.016 127.249 181.117C131.304 182.195 134.749 183.801 137.585 185.934C140.421 188.066 142.601 190.727 144.124 193.914C145.648 197.078 146.41 200.734 146.41 204.883ZM133.226 204.883C133.226 203.078 132.933 201.285 132.347 199.504C131.785 197.699 130.765 196.082 129.288 194.652C127.835 193.223 125.843 192.062 123.312 191.172C120.781 190.281 117.558 189.836 113.644 189.836C111.019 189.836 108.71 190.047 106.718 190.469C104.726 190.867 103.003 191.43 101.55 192.156C100.097 192.883 98.8783 193.738 97.8939 194.723C96.9095 195.684 96.1244 196.727 95.5385 197.852C94.9525 198.953 94.5306 200.113 94.2728 201.332C94.0385 202.527 93.9213 203.711 93.9213 204.883C93.9213 206.078 94.0385 207.285 94.2728 208.504C94.5306 209.723 94.9525 210.895 95.5385 212.02C96.1244 213.121 96.9095 214.152 97.8939 215.113C98.8783 216.074 100.097 216.918 101.55 217.645C103.003 218.348 104.726 218.91 106.718 219.332C108.71 219.73 111.019 219.93 113.644 219.93C117.558 219.93 120.781 219.484 123.312 218.594C125.843 217.703 127.835 216.543 129.288 215.113C130.765 213.684 131.785 212.078 132.347 210.297C132.933 208.492 133.226 206.688 133.226 204.883Z" fill="white"/>
<path d="M217.605 229L185.015 195.812V229H171.972V180.695H186.14L218.765 214.023V180.695H231.738V229H217.605Z" fill="white"/>
<path d="M323.043 204.883C323.043 207.508 322.727 209.934 322.094 212.16C321.484 214.363 320.594 216.379 319.422 218.207C322.703 219.449 325.656 220.41 328.281 221.09L322.973 230.582C321.074 229.855 319.141 229.094 317.172 228.297C315.203 227.5 313.223 226.656 311.23 225.766C308.512 227.289 305.395 228.426 301.879 229.176C298.363 229.926 294.496 230.301 290.277 230.301C285.238 230.301 280.68 229.762 276.602 228.684C272.547 227.582 269.09 225.965 266.23 223.832C263.371 221.699 261.168 219.051 259.621 215.887C258.074 212.699 257.301 209.031 257.301 204.883C257.301 200.734 258.074 197.078 259.621 193.914C261.168 190.727 263.371 188.066 266.23 185.934C269.09 183.801 272.547 182.195 276.602 181.117C280.68 180.016 285.238 179.465 290.277 179.465C295.316 179.465 299.852 180.016 303.883 181.117C307.938 182.195 311.383 183.801 314.219 185.934C317.055 188.066 319.234 190.727 320.758 193.914C322.281 197.078 323.043 200.734 323.043 204.883ZM309.859 204.883C309.859 203.078 309.566 201.285 308.98 199.504C308.418 197.699 307.398 196.082 305.922 194.652C304.469 193.223 302.477 192.062 299.945 191.172C297.414 190.281 294.191 189.836 290.277 189.836C287.652 189.836 285.344 190.047 283.352 190.469C281.359 190.867 279.637 191.43 278.184 192.156C276.73 192.883 275.512 193.738 274.527 194.723C273.543 195.684 272.758 196.727 272.172 197.852C271.586 198.953 271.164 200.113 270.906 201.332C270.672 202.527 270.555 203.711 270.555 204.883C270.555 206.078 270.672 207.285 270.906 208.504C271.164 209.723 271.586 210.895 272.172 212.02C272.758 213.121 273.543 214.152 274.527 215.113C275.512 216.074 276.73 216.918 278.184 217.645C279.637 218.348 281.359 218.91 283.352 219.332C285.344 219.73 287.652 219.93 290.277 219.93C291.684 219.93 292.996 219.871 294.215 219.754C295.434 219.637 296.594 219.449 297.695 219.191C296.242 218.441 294.836 217.691 293.477 216.941C292.141 216.168 290.875 215.406 289.68 214.656L294.883 206.113C296.547 207.262 298.469 208.434 300.648 209.629C302.828 210.824 305.125 211.996 307.539 213.145C308.43 211.879 309.039 210.555 309.367 209.172C309.695 207.766 309.859 206.336 309.859 204.883Z" fill="white"/>
<path d="M405.629 212.723C405.629 215.137 405.032 217.41 403.836 219.543C402.641 221.676 400.848 223.539 398.457 225.133C396.067 226.727 393.078 227.992 389.493 228.93C385.93 229.844 381.758 230.301 376.977 230.301C372.196 230.301 368 229.844 364.391 228.93C360.805 227.992 357.817 226.727 355.426 225.133C353.035 223.539 351.243 221.676 350.047 219.543C348.852 217.41 348.254 215.137 348.254 212.723V180.695H361.262V208.047C361.262 209.664 361.461 211.199 361.86 212.652C362.282 214.082 363.055 215.336 364.18 216.414C365.328 217.492 366.922 218.348 368.961 218.98C371.024 219.613 373.696 219.93 376.977 219.93C380.235 219.93 382.883 219.613 384.922 218.98C386.961 218.348 388.543 217.492 389.668 216.414C390.817 215.336 391.59 214.082 391.989 212.652C392.387 211.199 392.586 209.664 392.586 208.047V180.695H405.629V212.723Z" fill="white"/>
<path d="M434.075 229V180.695H482.977V190.996H447.469V198.977H481.149V209.277H447.469V218.699H483.469V229H434.075Z" fill="white"/>
<path d="M522.814 229H509.771V180.695H542.466C545.982 180.695 548.958 181.059 551.396 181.785C553.857 182.512 555.849 183.543 557.372 184.879C558.919 186.215 560.032 187.832 560.712 189.73C561.415 191.605 561.767 193.703 561.767 196.023C561.767 198.062 561.474 199.844 560.888 201.367C560.325 202.891 559.552 204.203 558.567 205.305C557.607 206.383 556.482 207.297 555.192 208.047C553.903 208.797 552.544 209.418 551.114 209.91L566.935 229H551.677L537.052 211.211H522.814V229ZM548.583 195.953C548.583 195.016 548.454 194.219 548.196 193.562C547.962 192.906 547.54 192.379 546.931 191.98C546.321 191.559 545.501 191.254 544.47 191.066C543.462 190.879 542.196 190.785 540.673 190.785H522.814V201.121H540.673C542.196 201.121 543.462 201.027 544.47 200.84C545.501 200.652 546.321 200.359 546.931 199.961C547.54 199.539 547.962 199 548.196 198.344C548.454 197.688 548.583 196.891 548.583 195.953Z" fill="white"/>
<path d="M80.9465 270.059L94.3059 260.848H103.042L86.7825 272.432L104.132 285H94.6223L80.9465 274.963V285H74.3899V260.848H80.9465V270.059Z" fill="white"/>
<path d="M132.735 280.43H119.27L117.003 285H109.725L122.364 260.848H129.641L142.28 285H135.003L132.735 280.43ZM121.608 275.719H130.432L126.038 266.824L121.608 275.719Z" fill="white"/>
<path d="M174.452 285L158.157 268.406V285H151.635V260.848H158.719L175.032 277.512V260.848H181.518V285H174.452Z" fill="white"/>
<path d="M194.477 285V260.848H218.928V265.998H201.174V269.988H218.014V275.139H201.174V279.85H219.174V285H194.477Z" fill="white"/>
<path d="M232.642 269.707H228.002L229.619 260.848H235.384L232.642 269.707Z" fill="white"/>
<path d="M267.714 267.65C267.257 267.428 266.654 267.176 265.904 266.895C265.154 266.613 264.304 266.35 263.355 266.104C262.405 265.846 261.374 265.635 260.261 265.471C259.148 265.295 258.005 265.207 256.833 265.207C255.896 265.207 255.093 265.236 254.425 265.295C253.769 265.354 253.212 265.43 252.755 265.523C252.31 265.617 251.952 265.729 251.683 265.857C251.425 265.975 251.226 266.098 251.085 266.227C250.945 266.355 250.851 266.484 250.804 266.613C250.769 266.742 250.751 266.859 250.751 266.965C250.751 267.316 250.927 267.627 251.279 267.896C251.63 268.154 252.111 268.389 252.72 268.6C253.329 268.799 254.038 268.992 254.847 269.18C255.655 269.355 256.511 269.543 257.413 269.742C258.327 269.93 259.265 270.141 260.226 270.375C261.198 270.598 262.136 270.861 263.038 271.166C263.952 271.471 264.814 271.828 265.622 272.238C266.431 272.637 267.14 273.105 267.749 273.645C268.359 274.184 268.839 274.805 269.191 275.508C269.542 276.211 269.718 277.014 269.718 277.916C269.718 279.076 269.513 280.072 269.103 280.904C268.693 281.736 268.142 282.439 267.45 283.014C266.771 283.588 265.98 284.051 265.077 284.402C264.175 284.742 263.226 285.006 262.23 285.193C261.245 285.381 260.243 285.504 259.224 285.562C258.216 285.621 257.255 285.65 256.341 285.65C253.95 285.65 251.736 285.451 249.697 285.053C247.669 284.666 245.876 284.18 244.318 283.594V277.828C245.923 278.719 247.751 279.416 249.802 279.92C251.864 280.424 254.068 280.676 256.411 280.676C257.794 280.676 258.919 280.605 259.786 280.465C260.665 280.312 261.351 280.125 261.843 279.902C262.335 279.668 262.669 279.416 262.845 279.146C263.021 278.877 263.109 278.619 263.109 278.373C263.109 277.986 262.933 277.652 262.581 277.371C262.23 277.078 261.749 276.826 261.14 276.615C260.53 276.393 259.822 276.193 259.013 276.018C258.204 275.83 257.343 275.648 256.429 275.473C255.527 275.285 254.595 275.086 253.634 274.875C252.673 274.664 251.736 274.418 250.822 274.137C249.919 273.844 249.064 273.51 248.255 273.135C247.447 272.748 246.738 272.297 246.128 271.781C245.519 271.254 245.038 270.65 244.687 269.971C244.335 269.279 244.159 268.482 244.159 267.58C244.159 266.514 244.347 265.594 244.722 264.82C245.097 264.047 245.601 263.391 246.234 262.852C246.878 262.301 247.616 261.855 248.448 261.516C249.292 261.176 250.177 260.912 251.103 260.725C252.029 260.537 252.966 260.408 253.915 260.338C254.864 260.268 255.767 260.232 256.622 260.232C257.56 260.232 258.521 260.279 259.505 260.373C260.501 260.467 261.48 260.602 262.441 260.777C263.402 260.941 264.327 261.135 265.218 261.357C266.12 261.58 266.952 261.814 267.714 262.061V267.65Z" fill="white"/>
<path d="M323.707 260.848L329.877 277.617L336.557 260.848H343.325L333.622 285H326.379L320.069 268.758L313.776 285H306.534L296.813 260.848H303.598L310.137 277.266L316.448 260.848H323.707Z" fill="white"/>
<path d="M359.412 285H352.891V260.848H369.238C370.996 260.848 372.484 261.029 373.703 261.393C374.934 261.756 375.93 262.271 376.691 262.939C377.465 263.607 378.022 264.416 378.361 265.365C378.713 266.303 378.889 267.352 378.889 268.512C378.889 269.531 378.742 270.422 378.449 271.184C378.168 271.945 377.781 272.602 377.289 273.152C376.809 273.691 376.246 274.148 375.602 274.523C374.957 274.898 374.277 275.209 373.563 275.455L381.473 285H373.844L366.531 276.105H359.412V285ZM372.297 268.477C372.297 268.008 372.232 267.609 372.104 267.281C371.986 266.953 371.775 266.689 371.471 266.49C371.166 266.279 370.756 266.127 370.24 266.033C369.736 265.939 369.104 265.893 368.342 265.893H359.412V271.061H368.342C369.104 271.061 369.736 271.014 370.24 270.92C370.756 270.826 371.166 270.68 371.471 270.48C371.775 270.27 371.986 270 372.104 269.672C372.232 269.344 372.297 268.945 372.297 268.477Z" fill="white"/>
<path d="M410.955 280.43H397.49L395.222 285H387.945L400.584 260.848H407.861L420.5 285H413.222L410.955 280.43ZM399.828 275.719H408.652L404.257 266.824L399.828 275.719Z" fill="white"/>
<path d="M441.984 266.104V285H435.462V266.104H425.214V260.848H452.249V266.104H441.984Z" fill="white"/>
<path d="M485.089 285V274.928H468.495V285H461.973V260.848H468.495V269.637H485.089V260.848H491.61V285H485.089Z" fill="white"/>
</svg>
